<svg width="25" height="25" viewBox="0 0 25 25" fill="none" xmlns="http://www.w3.org/2000/svg">
<path d="M14.325 3C13.0984 3 11.922 3.48728 11.0546 4.35463C10.1873 5.22199 9.7 6.39837 9.7 7.625V10.2H7.225C7.101 10.2 7 10.3 7 10.425V13.825C7 13.949 7.1 14.05 7.225 14.05H9.7V21.025C9.7 21.149 9.8 21.25 9.925 21.25H13.325C13.449 21.25 13.55 21.15 13.55 21.025V14.05H16.047C16.15 14.05 16.24 13.98 16.265 13.88L17.115 10.48C17.1234 10.4468 17.1241 10.4122 17.117 10.3787C17.11 10.3452 17.0954 10.3138 17.0744 10.2868C17.0533 10.2598 17.0264 10.2379 16.9957 10.2229C16.965 10.2079 16.9312 10.2 16.897 10.2H13.55V7.625C13.55 7.52323 13.57 7.42245 13.609 7.32842C13.6479 7.23439 13.705 7.14896 13.777 7.07699C13.849 7.00503 13.9344 6.94794 14.0284 6.90899C14.1224 6.87005 14.2232 6.85 14.325 6.85H16.925C17.049 6.85 17.15 6.75 17.15 6.625V3.225C17.15 3.101 17.05 3 16.925 3H14.325Z" fill="black"/>
</svg>
