<svg width="296" height="296" viewBox="0 0 296 296" fill="none" xmlns="http://www.w3.org/2000/svg">
<circle cx="148" cy="148" r="148" fill="#EFF6F5"/>
<path d="M192.791 55.249C171.333 44.8863 146.945 42.2846 123.783 47.8873C100.622 53.4899 80.1194 66.9502 65.7695 85.9746C51.4196 104.999 44.1101 128.411 45.0865 152.22C46.0629 176.03 55.2647 198.764 71.1241 216.55C86.9835 234.336 108.519 246.072 132.062 249.759C155.604 253.447 179.697 248.857 200.235 236.772C220.773 224.687 236.485 205.855 244.695 183.484C252.904 161.113 253.103 136.588 245.257 114.087L219.099 123.208C224.835 139.657 224.69 157.587 218.688 173.941C212.687 190.295 201.2 204.062 186.186 212.896C171.172 221.731 153.559 225.086 136.348 222.391C119.138 219.695 103.394 211.115 91.8003 198.113C80.2064 185.111 73.4794 168.491 72.7657 151.085C72.0519 133.679 77.3954 116.564 87.8858 102.657C98.3763 88.749 113.364 78.9089 130.297 74.8132C147.229 70.7174 165.057 72.6193 180.744 80.1949L192.791 55.249Z" fill="#1ACAA6"/>
</svg>
