<svg width="88" height="70" viewBox="0 0 88 70" fill="none" xmlns="http://www.w3.org/2000/svg">
<rect x="0.853516" width="86.7597" height="70" rx="8" fill="white"/>
<path d="M29 22.3C29 20.6291 29.6637 19.0267 30.8452 17.8452C32.0267 16.6637 33.6291 16 35.3 16H52.7C54.3709 16 55.9733 16.6637 57.1548 17.8452C58.3363 19.0267 59 20.6291 59 22.3V53.5C58.9997 53.7761 58.9233 54.0467 58.779 54.2821C58.6348 54.5175 58.4284 54.7085 58.1826 54.8341C57.9368 54.9598 57.661 55.0151 57.3858 54.9941C57.1105 54.9731 56.8464 54.8765 56.6225 54.715L44 45.6025L31.3775 54.715C31.1536 54.8765 30.8895 54.9731 30.6142 54.9941C30.339 55.0151 30.0632 54.9598 29.8174 54.8341C29.5716 54.7085 29.3652 54.5175 29.221 54.2821C29.0767 54.0467 29.0003 53.7761 29 53.5V22.3ZM35.3 19C34.4248 19 33.5854 19.3477 32.9665 19.9665C32.3477 20.5854 32 21.4248 32 22.3V50.566L43.1225 42.5335C43.378 42.3492 43.685 42.2501 44 42.2501C44.315 42.2501 44.622 42.3492 44.8775 42.5335L56 50.566V22.3C56 21.4248 55.6523 20.5854 55.0335 19.9665C54.4146 19.3477 53.5752 19 52.7 19H35.3Z" fill="#1ACAA6"/>
</svg>
