<svg width="88" height="70" viewBox="0 0 88 70" fill="none" xmlns="http://www.w3.org/2000/svg">
<rect x="0.853516" width="86.7597" height="70" rx="8" fill="white"/>
<path d="M39.625 31.625C39.625 31.1277 39.8225 30.6508 40.1742 30.2992C40.5258 29.9475 41.0027 29.75 41.5 29.75H46.5C46.9973 29.75 47.4742 29.9475 47.8258 30.2992C48.1775 30.6508 48.375 31.1277 48.375 31.625C48.375 32.1223 48.1775 32.5992 47.8258 32.9508C47.4742 33.3025 46.9973 33.5 46.5 33.5H41.5C41.0027 33.5 40.5258 33.3025 40.1742 32.9508C39.8225 32.5992 39.625 32.1223 39.625 31.625ZM60.875 26.625V46.625C60.875 47.4538 60.5458 48.2487 59.9597 48.8347C59.3737 49.4208 58.5788 49.75 57.75 49.75H30.25C29.4212 49.75 28.6263 49.4208 28.0403 48.8347C27.4542 48.2487 27.125 47.4538 27.125 46.625V26.625C27.125 25.7962 27.4542 25.0013 28.0403 24.4153C28.6263 23.8292 29.4212 23.5 30.25 23.5H35.875V22.25C35.875 21.0897 36.3359 19.9769 37.1564 19.1564C37.9769 18.3359 39.0897 17.875 40.25 17.875H47.75C48.9103 17.875 50.0231 18.3359 50.8436 19.1564C51.6641 19.9769 52.125 21.0897 52.125 22.25V23.5H57.75C58.5788 23.5 59.3737 23.8292 59.9597 24.4153C60.5458 25.0013 60.875 25.7962 60.875 26.625ZM39.625 23.5H48.375V22.25C48.375 22.0842 48.3092 21.9253 48.1919 21.8081C48.0747 21.6908 47.9158 21.625 47.75 21.625H40.25C40.0842 21.625 39.9253 21.6908 39.8081 21.8081C39.6908 21.9253 39.625 22.0842 39.625 22.25V23.5ZM30.875 27.25V32.7547C34.9212 34.8872 39.4262 36.0012 44 36C48.5739 36.0011 53.0791 34.8866 57.125 32.7531V27.25H30.875ZM57.125 46V36.9281C52.9995 38.7886 48.5256 39.7505 44 39.75C39.4744 39.7508 35.0004 38.7889 30.875 36.9281V46H57.125Z" fill="#0A6251"/>
</svg>
