<svg width="120" height="120" viewBox="0 0 120 120" fill="none" xmlns="http://www.w3.org/2000/svg">
<circle cx="60" cy="60" r="60" fill="#1ACAA6"/>
<g clip-path="url(#clip0_26_237)">
<path d="M90 59.97C90 43.425 76.56 30 60 30C43.44 30 30 43.425 30 59.97C30 69.0825 34.14 77.295 40.62 82.8075C40.68 82.8675 40.74 82.8675 40.74 82.9275C41.28 83.3475 41.82 83.7675 42.42 84.1875C42.72 84.3675 42.96 84.6037 43.26 84.8438C48.2178 88.2051 54.0702 90.0013 60.06 90C66.0498 90.0013 71.9022 88.2051 76.86 84.8438C77.16 84.6637 77.4 84.4275 77.7 84.2438C78.24 83.8275 78.84 83.4075 79.38 82.9875C79.44 82.9275 79.5 82.9275 79.5 82.8675C85.86 77.2912 90 69.0825 90 59.97ZM60 86.2238C54.36 86.2238 49.2 84.4237 44.94 81.4275C45 80.9475 45.12 80.4713 45.24 79.9913C45.5975 78.6904 46.1219 77.4413 46.8 76.275C47.46 75.135 48.24 74.115 49.2 73.215C50.1 72.315 51.18 71.4788 52.26 70.8188C53.4 70.1588 54.6 69.6787 55.92 69.3187C57.2503 68.9602 58.6223 68.7799 60 68.7825C64.0899 68.7535 68.0296 70.3224 70.98 73.155C72.36 74.535 73.44 76.155 74.22 78.0113C74.64 79.0913 74.94 80.2313 75.12 81.4275C70.6919 84.5406 65.4129 86.2152 60 86.2238ZM50.82 58.4737C50.2913 57.2633 50.0255 55.9545 50.04 54.6337C50.04 53.3175 50.28 51.9975 50.82 50.7975C51.36 49.5975 52.08 48.5212 52.98 47.6213C53.88 46.7212 54.96 46.005 56.16 45.465C57.36 44.925 58.68 44.685 60 44.685C61.38 44.685 62.64 44.925 63.84 45.465C65.04 46.005 66.12 46.725 67.02 47.6213C67.92 48.5212 68.64 49.6012 69.18 50.7975C69.72 51.9975 69.96 53.3175 69.96 54.6337C69.96 56.0138 69.72 57.2738 69.18 58.47C68.6589 59.6522 67.9269 60.7298 67.02 61.65C66.0995 62.5556 65.022 63.2862 63.84 63.8063C61.3606 64.8252 58.5794 64.8252 56.1 63.8063C54.918 63.2862 53.8405 62.5556 52.92 61.65C52.0118 60.7432 51.2973 59.6651 50.82 58.4737ZM78.66 78.3713C78.66 78.2513 78.6 78.1912 78.6 78.0713C78.0099 76.1941 77.1401 74.4166 76.02 72.7988C74.8988 71.1689 73.521 69.7315 71.94 68.5425C70.7326 67.6342 69.4238 66.8691 68.04 66.2625C68.6696 65.8472 69.2529 65.3657 69.78 64.8262C70.6745 63.9431 71.4601 62.9561 72.12 61.8863C73.4488 59.703 74.1351 57.1893 74.1 54.6337C74.1186 52.7419 73.7511 50.8662 73.02 49.1213C72.2982 47.4399 71.2593 45.9133 69.96 44.625C68.6627 43.3501 67.1358 42.3322 65.46 41.625C63.7121 40.8952 61.834 40.529 59.94 40.5487C58.0458 40.5302 56.1676 40.8977 54.42 41.6287C52.7297 42.3345 51.1992 43.3739 49.92 44.685C48.6452 45.981 47.6272 47.5066 46.92 49.1812C46.1889 50.9262 45.8214 52.8019 45.84 54.6938C45.84 56.0138 46.02 57.2738 46.38 58.47C46.74 59.73 47.22 60.87 47.88 61.9463C48.48 63.0262 49.32 63.9863 50.22 64.8863C50.76 65.4263 51.36 65.9025 52.02 66.3225C50.6319 66.9452 49.3227 67.7307 48.12 68.6625C46.56 69.8625 45.18 71.2987 44.04 72.8587C42.9085 74.4699 42.0378 76.2492 41.46 78.1312C41.4 78.2513 41.4 78.3713 41.4 78.4313C36.66 73.635 33.72 67.1625 33.72 59.97C33.72 45.525 45.54 33.7162 60 33.7162C74.46 33.7162 86.28 45.525 86.28 59.97C86.2721 66.8698 83.5324 73.4858 78.66 78.3713Z" fill="white"/>
</g>
<defs>
<clipPath id="clip0_26_237">
<rect width="60" height="60" fill="white" transform="translate(30 30)"/>
</clipPath>
</defs>
</svg>
