<svg width="22" height="23" viewBox="0 0 22 23" fill="none" xmlns="http://www.w3.org/2000/svg">
<path d="M18 9.5V7L12.5 1.5H4C3.46957 1.5 2.96086 1.71071 2.58579 2.08579C2.21071 2.46086 2 2.96957 2 3.5V19.5C2 20.6 2.9 21.5 4 21.5H8.5" stroke="inherit" stroke-opacity="0.5" stroke-width="2.66667" stroke-linecap="round" stroke-linejoin="round"/>
<path d="M12 1.5V7.5H18M14 21.5C13.4696 21.5 12.9609 21.2893 12.5858 20.9142C12.2107 20.5391 12 20.0304 12 19.5M18 21.5C18.5304 21.5 19.0391 21.2893 19.4142 20.9142C19.7893 20.5391 20 20.0304 20 19.5M18 13.5C18.5304 13.5 19.0391 13.7107 19.4142 14.0858C19.7893 14.4609 20 14.9696 20 15.5M14 13.5C13.4696 13.5 12.9609 13.7107 12.5858 14.0858C12.2107 14.4609 12 14.9696 12 15.5" stroke="inherit" stroke-opacity="0.5" stroke-width="2.66667" stroke-linecap="round" stroke-linejoin="round"/>
</svg>
