<svg width="25" height="24" viewBox="0 0 25 24" fill="none" xmlns="http://www.w3.org/2000/svg">
<path d="M8.07638 19.9969C9.55507 20.0463 11.0287 19.7989 12.4101 19.2692C13.7916 18.7394 15.0528 17.9382 16.1193 16.9127C17.1858 15.8872 18.0359 14.6584 18.6194 13.2988C19.2028 11.9391 19.5079 10.4764 19.5164 8.99687C20.194 8.15828 20.6972 7.1927 20.9964 6.15687C21.0187 6.07503 21.0169 5.98848 20.9912 5.90764C20.9655 5.82681 20.9169 5.75513 20.8514 5.70124C20.7859 5.64735 20.7062 5.61354 20.6219 5.6039C20.5376 5.59425 20.4524 5.60917 20.3764 5.64687C20.0219 5.81752 19.6227 5.87265 19.2352 5.80448C18.8477 5.7363 18.4914 5.54827 18.2164 5.26687C17.8653 4.88245 17.4407 4.5724 16.9676 4.3551C16.4946 4.13779 15.9827 4.01766 15.4623 4.0018C14.942 3.98595 14.4237 4.07471 13.9383 4.26281C13.4529 4.45091 13.0102 4.73453 12.6364 5.09687C12.1246 5.59253 11.7497 6.21216 11.5482 6.89555C11.3467 7.57893 11.3254 8.30282 11.4864 8.99687C8.13638 9.19687 5.83638 7.60687 3.99638 5.42687C3.9411 5.36427 3.86879 5.31912 3.78828 5.29694C3.70777 5.27476 3.62254 5.2765 3.543 5.30195C3.46347 5.3274 3.39306 5.37546 3.34039 5.44027C3.28771 5.50507 3.25505 5.58381 3.24638 5.66687C2.89585 7.61129 3.14871 9.61642 3.971 11.4129C4.79329 13.2095 6.14562 14.7113 7.84638 15.7169C6.70602 17.0247 5.10459 17.8415 3.37638 17.9969C3.28379 18.0122 3.19832 18.0561 3.13193 18.1225C3.06554 18.1888 3.02155 18.2743 3.00612 18.3668C2.99069 18.4594 3.0046 18.5545 3.04588 18.6388C3.08717 18.7231 3.15378 18.7923 3.23638 18.8369C4.7399 19.5882 6.39561 19.9851 8.07638 19.9969Z" fill="black"/>
</svg>
