<svg width="80" height="80" viewBox="0 0 80 80" fill="none" xmlns="http://www.w3.org/2000/svg">
<path d="M77.4082 22.1003L67.4082 12.1003C66.7037 11.3958 65.7482 11 64.7519 11C63.7556 11 62.8002 11.3958 62.0957 12.1003C61.3912 12.8047 60.9954 13.7602 60.9954 14.7565C60.9954 15.7528 61.3912 16.7083 62.0957 17.4128L65.6926 21.0034H59.7551C56.5129 21.1071 53.3247 21.8616 50.3801 23.2221C45.8519 25.3128 40.1269 29.7846 38.5644 39.1346C37.7238 44.1878 35.2582 47.6971 31.2426 49.569C30.1676 50.0633 29.0393 50.4324 27.8801 50.669C26.8959 47.5037 24.8015 44.8004 21.9823 43.0569C19.163 41.3133 15.8089 40.647 12.5373 41.1804C9.2657 41.7138 6.29694 43.4112 4.17758 45.9599C2.05822 48.5087 0.930937 51.7372 1.00328 55.0512C1.07562 58.3652 2.34271 61.5416 4.57127 63.9954C6.79983 66.4493 9.83983 68.0154 13.1316 68.4056C16.4233 68.7958 19.7452 67.9836 22.4857 66.1188C25.2261 64.2539 27.2006 61.4618 28.0457 58.2565C30.1147 57.9532 32.1331 57.3708 34.0457 56.5253C38.5832 54.5096 44.3301 50.069 45.9488 40.369C46.7551 35.5315 49.2238 32.0909 53.2894 30.1346C55.3178 29.175 57.5142 28.6209 59.7551 28.5034H65.6926L62.0926 32.1003C61.3881 32.8047 60.9923 33.7602 60.9923 34.7565C60.9923 35.7528 61.3881 36.7083 62.0926 37.4128C62.797 38.1172 63.7525 38.513 64.7488 38.513C65.7451 38.513 66.7006 38.1172 67.4051 37.4128L77.4051 27.4128C77.7549 27.0646 78.0325 26.6508 78.222 26.1951C78.4116 25.7393 78.5093 25.2507 78.5096 24.7572C78.5099 24.2636 78.4127 23.7748 78.2237 23.3189C78.0347 22.863 77.7576 22.4488 77.4082 22.1003ZM14.7551 61.0034C13.5189 61.0034 12.3106 60.6368 11.2827 59.9501C10.2549 59.2633 9.45386 58.2872 8.98081 57.1452C8.50776 56.0031 8.38399 54.7464 8.62515 53.5341C8.86631 52.3217 9.46156 51.208 10.3356 50.334C11.2097 49.4599 12.3234 48.8646 13.5357 48.6235C14.7481 48.3823 16.0048 48.5061 17.1468 48.9791C18.2889 49.4522 19.265 50.2533 19.9517 51.2811C20.6385 52.3089 21.0051 53.5172 21.0051 54.7534C21.0051 56.411 20.3466 58.0007 19.1745 59.1728C18.0024 60.3449 16.4127 61.0034 14.7551 61.0034Z" fill="#182838" fill-opacity="0.5"/>
</svg>
