<svg width="25" height="25" viewBox="0 0 25 25" fill="none" xmlns="http://www.w3.org/2000/svg">
<path d="M5.6 7.9C5.6 7.18392 5.88446 6.49716 6.39081 5.99081C6.89716 5.48446 7.58392 5.2 8.3 5.2C9.01608 5.2 9.70284 5.48446 10.2092 5.99081C10.7155 6.49716 11 7.18392 11 7.9C11 8.61608 10.7155 9.30284 10.2092 9.80919C9.70284 10.3155 9.01608 10.6 8.3 10.6C7.58392 10.6 6.89716 10.3155 6.39081 9.80919C5.88446 9.30284 5.6 8.61608 5.6 7.9ZM8.3 4C7.26566 4 6.27368 4.41089 5.54228 5.14228C4.81089 5.87368 4.4 6.86566 4.4 7.9C4.4 8.93434 4.81089 9.92632 5.54228 10.6577C6.27368 11.3891 7.26566 11.8 8.3 11.8C9.33434 11.8 10.3263 11.3891 11.0577 10.6577C11.7891 9.92632 12.2 8.93434 12.2 7.9C12.2 6.86566 11.7891 5.87368 11.0577 5.14228C10.3263 4.41089 9.33434 4 8.3 4ZM15.1244 17.974C15.77 18.238 16.5824 18.4 17.6 18.4C19.8572 18.4 21.1052 17.5984 21.7628 16.6792C22.1059 16.1968 22.321 15.6353 22.388 15.0472C22.394 14.9926 22.398 14.9377 22.4 14.8828V14.8C22.4 14.5636 22.3534 14.3296 22.263 14.1112C22.1725 13.8928 22.0399 13.6944 21.8728 13.5272C21.7056 13.3601 21.5072 13.2275 21.2888 13.137C21.0704 13.0466 20.8364 13 20.6 13H15.044C15.332 13.348 15.548 13.7548 15.674 14.2H20.6C20.7591 14.2 20.9117 14.2632 21.0243 14.3757C21.1368 14.4883 21.2 14.6409 21.2 14.8V14.8648L21.194 14.9248C21.148 15.3053 21.0078 15.6683 20.786 15.9808C20.3936 16.5316 19.5416 17.2 17.6 17.2C16.7216 17.2 16.0664 17.0632 15.5756 16.8628C15.4772 17.1988 15.3344 17.578 15.1244 17.974ZM2 15.4C2 14.7635 2.25286 14.153 2.70294 13.7029C3.15303 13.2529 3.76348 13 4.4 13H12.2C12.8365 13 13.447 13.2529 13.8971 13.7029C14.3471 14.153 14.6 14.7635 14.6 15.4V15.5008C14.6 15.5128 14.6 15.5284 14.5976 15.5488C14.583 15.7864 14.5489 16.0224 14.4956 16.2544C14.3936 16.696 14.1908 17.2864 13.7816 17.8792C12.9404 19.096 11.3156 20.2 8.3 20.2C5.2844 20.2 3.6596 19.096 2.8184 17.8792C2.37539 17.2339 2.09916 16.4889 2.0144 15.7108C2.00723 15.641 2.00243 15.5709 2 15.5008V15.4ZM3.2 15.472V15.4936L3.2084 15.5932C3.27342 16.1684 3.47862 16.7189 3.806 17.1964C4.3904 18.0412 5.6156 19 8.3 19C10.9844 19 12.2096 18.0412 12.794 17.1964C13.1215 16.719 13.3267 16.1685 13.3916 15.5932C13.3955 15.5601 13.3979 15.5269 13.3988 15.4936L13.4 15.4732V15.4C13.4 15.0817 13.2736 14.7765 13.0485 14.5515C12.8235 14.3264 12.5183 14.2 12.2 14.2H4.4C4.08174 14.2 3.77652 14.3264 3.55147 14.5515C3.32643 14.7765 3.2 15.0817 3.2 15.4V15.472ZM15.8 8.8C15.8 8.32261 15.9896 7.86477 16.3272 7.52721C16.6648 7.18964 17.1226 7 17.6 7C18.0774 7 18.5352 7.18964 18.8728 7.52721C19.2104 7.86477 19.4 8.32261 19.4 8.8C19.4 9.27739 19.2104 9.73523 18.8728 10.0728C18.5352 10.4104 18.0774 10.6 17.6 10.6C17.1226 10.6 16.6648 10.4104 16.3272 10.0728C15.9896 9.73523 15.8 9.27739 15.8 8.8ZM17.6 5.8C16.8044 5.8 16.0413 6.11607 15.4787 6.67868C14.9161 7.24129 14.6 8.00435 14.6 8.8C14.6 9.59565 14.9161 10.3587 15.4787 10.9213C16.0413 11.4839 16.8044 11.8 17.6 11.8C18.3957 11.8 19.1587 11.4839 19.7213 10.9213C20.2839 10.3587 20.6 9.59565 20.6 8.8C20.6 8.00435 20.2839 7.24129 19.7213 6.67868C19.1587 6.11607 18.3957 5.8 17.6 5.8Z" fill="black" fill-opacity="0.5"/>
</svg>
