<svg width="25" height="24" viewBox="0 0 25 24" fill="none" xmlns="http://www.w3.org/2000/svg">
<path d="M5 5.15C5 4.31457 5.33187 3.51335 5.92261 2.92261C6.51335 2.33187 7.31457 2 8.15 2H16.85C17.6854 2 18.4866 2.33187 19.0774 2.92261C19.6681 3.51335 20 4.31457 20 5.15V20.75C19.9999 20.888 19.9616 21.0233 19.8895 21.141C19.8174 21.2587 19.7142 21.3543 19.5913 21.4171C19.4684 21.4799 19.3305 21.5076 19.1929 21.497C19.0553 21.4865 18.9232 21.4382 18.8113 21.3575L12.5 16.8013L6.18875 21.3575C6.0768 21.4382 5.94474 21.4865 5.80711 21.497C5.66948 21.5076 5.53162 21.4799 5.4087 21.4171C5.28579 21.3543 5.1826 21.2587 5.11049 21.141C5.03837 21.0233 5.00014 20.888 5 20.75V5.15ZM8.15 3.5C7.71239 3.5 7.29271 3.67384 6.98327 3.98327C6.67384 4.29271 6.5 4.71239 6.5 5.15V19.283L12.0612 15.2668C12.189 15.1746 12.3425 15.125 12.5 15.125C12.6575 15.125 12.811 15.1746 12.9387 15.2668L18.5 19.283V5.15C18.5 4.71239 18.3262 4.29271 18.0167 3.98327C17.7073 3.67384 17.2876 3.5 16.85 3.5H8.15Z" fill="black" fill-opacity="0.5"/>
</svg>
