<svg width="23" height="24" viewBox="0 0 23 24" fill="none" xmlns="http://www.w3.org/2000/svg">
<path d="M11.5025 7.75C10.7069 7.75 9.9438 8.06607 9.38119 8.62868C8.81858 9.19129 8.50251 9.95435 8.50251 10.75C8.50251 11.5457 8.81858 12.3087 9.38119 12.8713C9.9438 13.4339 10.7069 13.75 11.5025 13.75C12.2982 13.75 13.0612 13.4339 13.6238 12.8713C14.1864 12.3087 14.5025 11.5457 14.5025 10.75C14.5025 9.95435 14.1864 9.19129 13.6238 8.62868C13.0612 8.06607 12.2982 7.75 11.5025 7.75ZM9.75251 10.75C9.75251 10.2859 9.93689 9.84075 10.2651 9.51256C10.5933 9.18437 11.0384 9 11.5025 9C11.9666 9 12.4118 9.18437 12.7399 9.51256C13.0681 9.84075 13.2525 10.2859 13.2525 10.75C13.2525 11.2141 13.0681 11.6592 12.7399 11.9874C12.4118 12.3156 11.9666 12.5 11.5025 12.5C11.0384 12.5 10.5933 12.3156 10.2651 11.9874C9.93689 11.6592 9.75251 11.2141 9.75251 10.75ZM18 16L12.956 21.355C12.769 21.5536 12.5434 21.7118 12.293 21.8199C12.0426 21.9281 11.7728 21.9838 11.5 21.9838C11.2273 21.9838 10.9574 21.9281 10.707 21.8199C10.4566 21.7118 10.231 21.5536 10.044 21.355L5.00001 16H5.01901L5.01051 15.99L5.00001 15.9775C3.70536 14.4463 2.99657 12.5051 3.00001 10.5C3.00001 5.8055 6.80551 2 11.5 2C16.1945 2 20 5.8055 20 10.5C20.0035 12.5051 19.2947 14.4463 18 15.9775L17.9895 15.99L17.981 16H18ZM17.0285 15.1905C18.1426 13.8819 18.753 12.2186 18.75 10.5C18.75 6.496 15.504 3.25 11.5 3.25C7.49601 3.25 4.25001 6.496 4.25001 10.5C4.24689 12.2186 4.85735 13.8819 5.97151 15.1905L6.12551 15.372L10.954 20.4975C11.0241 20.572 11.1087 20.6313 11.2026 20.6718C11.2965 20.7124 11.3977 20.7333 11.5 20.7333C11.6023 20.7333 11.7035 20.7124 11.7974 20.6718C11.8913 20.6313 11.9759 20.572 12.046 20.4975L16.8745 15.372L17.0285 15.1905Z" fill="black" fill-opacity="0.5"/>
</svg>
