<svg width="65" height="65" viewBox="0 0 65 65" fill="none" xmlns="http://www.w3.org/2000/svg">
<g filter="url(#filter0_d_33_284)">
<circle cx="32.5" cy="28.5" r="28.5" fill="white"/>
</g>
<path d="M48.0092 24.4025H46.6667V24.3333H31.6667V31H41.0858C39.7117 34.8808 36.0192 37.6667 31.6667 37.6667C26.1442 37.6667 21.6667 33.1892 21.6667 27.6667C21.6667 22.1442 26.1442 17.6667 31.6667 17.6667C34.2158 17.6667 36.535 18.6283 38.3008 20.1992L43.015 15.485C40.0383 12.7108 36.0567 11 31.6667 11C22.4625 11 15 18.4625 15 27.6667C15 36.8708 22.4625 44.3333 31.6667 44.3333C40.8708 44.3333 48.3333 36.8708 48.3333 27.6667C48.3333 26.5492 48.2183 25.4583 48.0092 24.4025Z" fill="#FFC107"/>
<path d="M17.1674 20.0385L22.5519 23.9874C24.0089 20.3802 27.5374 17.8333 31.6666 17.8333C34.1733 17.8333 36.4538 18.779 38.1902 20.3236L42.8258 15.688C39.8988 12.9601 35.9834 11.2778 31.6666 11.2778C25.3716 11.2778 19.9125 14.8317 17.1674 20.0385Z" fill="#FF3D00"/>
<path d="M31.6666 44.0556C35.8999 44.0556 39.7463 42.4355 42.6546 39.801L37.5822 35.5088C35.8815 36.8022 33.8033 37.5017 31.6666 37.5C27.4039 37.5 23.7844 34.7819 22.4208 30.9887L17.0764 35.1064C19.7888 40.414 25.2971 44.0556 31.6666 44.0556Z" fill="#4CAF50"/>
<path d="M47.7368 24.4569H46.4166V24.3889H31.6666V30.9445H40.9288C40.2824 32.7607 39.1181 34.3478 37.5797 35.5096L37.5822 35.508L42.6546 39.8002C42.2956 40.1263 48.0555 35.8611 48.0555 27.6667C48.0555 26.5678 47.9424 25.4952 47.7368 24.4569Z" fill="#1976D2"/>
<defs>
<filter id="filter0_d_33_284" x="0" y="0" width="65" height="65" filterUnits="userSpaceOnUse" color-interpolation-filters="sRGB">
<feFlood flood-opacity="0" result="BackgroundImageFix"/>
<feColorMatrix in="SourceAlpha" type="matrix" values="0 0 0 0 0 0 0 0 0 0 0 0 0 0 0 0 0 0 127 0" result="hardAlpha"/>
<feOffset dy="4"/>
<feGaussianBlur stdDeviation="2"/>
<feComposite in2="hardAlpha" operator="out"/>
<feColorMatrix type="matrix" values="0 0 0 0 0 0 0 0 0 0 0 0 0 0 0 0 0 0 0.1 0"/>
<feBlend mode="normal" in2="BackgroundImageFix" result="effect1_dropShadow_33_284"/>
<feBlend mode="normal" in="SourceGraphic" in2="effect1_dropShadow_33_284" result="shape"/>
</filter>
</defs>
</svg>
