<svg width="24" height="25" viewBox="0 0 24 25" fill="inherit" xmlns="http://www.w3.org/2000/svg">
<path d="M22.1836 12.336L13.1274 3.28443L12.5204 2.6774C12.382 2.54 12.195 2.46289 12 2.46289C11.8051 2.46289 11.618 2.54 11.4797 2.6774L1.81645 12.336C1.67473 12.4772 1.56272 12.6453 1.48705 12.8305C1.41137 13.0156 1.37355 13.2141 1.37583 13.4141C1.3852 14.2391 2.07192 14.8977 2.89692 14.8977H3.89302V22.5313H20.1071V14.8977H21.1243C21.525 14.8977 21.9024 14.7407 22.186 14.4571C22.3256 14.3179 22.4363 14.1524 22.5115 13.9701C22.5867 13.7879 22.6251 13.5925 22.6243 13.3954C22.6243 12.9969 22.4672 12.6196 22.1836 12.336ZM13.3125 20.8438H10.6875V16.0626H13.3125V20.8438ZM18.4196 13.2102V20.8438H14.8125V15.5001C14.8125 14.9821 14.393 14.5626 13.875 14.5626H10.125C9.60708 14.5626 9.18755 14.9821 9.18755 15.5001V20.8438H5.58052V13.2102H3.33052L12.0024 4.54537L12.5438 5.08678L20.6719 13.2102H18.4196Z" fill="inherit"/>
</svg>
