<svg width="155" height="68" viewBox="0 0 155 68" fill="none" xmlns="http://www.w3.org/2000/svg">
<path d="M13.2422 49V20.4062H21.1133V49H13.2422ZM26.9336 49V29.2734H33.3008V33.2773C34.2253 31.6758 35.293 30.5039 36.5039 29.7617C37.7148 29.0195 39.1667 28.6484 40.8594 28.6484C42.1354 28.6484 43.2682 28.8568 44.2578 29.2734C45.2604 29.6771 46.0742 30.263 46.6992 31.0312C47.2201 31.6953 47.5911 32.5026 47.8125 33.4531C48.0339 34.4036 48.1445 35.8229 48.1445 37.7109V49H41.1719V38.4336C41.1719 36.8581 40.9115 35.7122 40.3906 34.9961C39.8828 34.2799 39.0625 33.9219 37.9297 33.9219C36.4844 33.9219 35.4297 34.4557 34.7656 35.5234C34.1016 36.5911 33.7695 38.3229 33.7695 40.7188V49H26.9336Z" fill="#0A6251"/>
<path d="M74.2773 21.5195V30.0352C73.2096 28.8503 72.1419 27.9844 71.0742 27.4375C70.0195 26.8776 68.8867 26.5977 67.6758 26.5977C65.4362 26.5977 63.6198 27.3659 62.2266 28.9023C60.8464 30.4258 60.1562 32.418 60.1562 34.8789C60.1562 37.1706 60.8594 39.0716 62.2656 40.582C63.6849 42.0924 65.4883 42.8477 67.6758 42.8477C68.8867 42.8477 70.0195 42.5742 71.0742 42.0273C72.1419 41.4674 73.2096 40.5885 74.2773 39.3906V47.9258C73.0404 48.5247 71.8099 48.974 70.5859 49.2734C69.362 49.5729 68.125 49.7227 66.875 49.7227C65.3125 49.7227 63.8672 49.5339 62.5391 49.1562C61.224 48.7917 60.013 48.2318 58.9062 47.4766C56.7708 46.0443 55.1432 44.2409 54.0234 42.0664C52.9036 39.8919 52.3438 37.444 52.3438 34.7227C52.3438 32.5352 52.6953 30.5495 53.3984 28.7656C54.1146 26.9688 55.1888 25.3411 56.6211 23.8828C57.9753 22.4896 59.4987 21.4479 61.1914 20.7578C62.8971 20.0677 64.7917 19.7227 66.875 19.7227C68.125 19.7227 69.362 19.8724 70.5859 20.1719C71.8099 20.4714 73.0404 20.9206 74.2773 21.5195ZM92.1875 39.1953C92.1875 37.724 91.8164 36.5651 91.0742 35.7188C90.332 34.8724 89.3294 34.4492 88.0664 34.4492C86.7904 34.4492 85.7812 34.8724 85.0391 35.7188C84.3099 36.5651 83.9453 37.724 83.9453 39.1953C83.9453 40.6667 84.3099 41.8255 85.0391 42.6719C85.7682 43.5052 86.7773 43.9219 88.0664 43.9219C89.3424 43.9219 90.3451 43.5052 91.0742 42.6719C91.8164 41.8255 92.1875 40.6667 92.1875 39.1953ZM99.1016 39.1953C99.1016 40.6146 98.8216 41.9622 98.2617 43.2383C97.7148 44.5143 96.9141 45.6602 95.8594 46.6758C94.7917 47.6914 93.5938 48.4596 92.2656 48.9805C90.9505 49.5013 89.5508 49.7617 88.0664 49.7617C86.556 49.7617 85.1367 49.5013 83.8086 48.9805C82.4935 48.4596 81.3151 47.6914 80.2734 46.6758C79.2318 45.6862 78.4375 44.5534 77.8906 43.2773C77.3438 41.9883 77.0703 40.6276 77.0703 39.1953C77.0703 37.75 77.3372 36.3893 77.8711 35.1133C78.418 33.8372 79.2188 32.6914 80.2734 31.6758C81.3021 30.6732 82.474 29.918 83.7891 29.4102C85.1172 28.9023 86.543 28.6484 88.0664 28.6484C89.5898 28.6484 91.0091 28.9023 92.3242 29.4102C93.6393 29.918 94.8177 30.6732 95.8594 31.6758C96.9271 32.7044 97.7344 33.8568 98.2812 35.1328C98.8281 36.4089 99.1016 37.763 99.1016 39.1953ZM103.145 49V29.2734H109.707V33.9219C110.384 32.2292 111.309 30.9596 112.48 30.1133C113.652 29.2669 115.072 28.8438 116.738 28.8438C117.012 28.8438 117.285 28.8568 117.559 28.8828C117.845 28.8958 118.132 28.9219 118.418 28.9609L117.754 35.2891C117.337 35.1458 116.927 35.0417 116.523 34.9766C116.12 34.9115 115.729 34.8789 115.352 34.8789C113.659 34.8789 112.35 35.3997 111.426 36.4414C110.514 37.4701 110.059 38.9349 110.059 40.8359V49H103.145ZM127.207 39.1953C127.207 40.7318 127.604 41.9427 128.398 42.8281C129.206 43.7135 130.312 44.1562 131.719 44.1562C133.125 44.1562 134.232 43.7135 135.039 42.8281C135.859 41.9427 136.27 40.7318 136.27 39.1953C136.27 37.6589 135.866 36.4479 135.059 35.5625C134.251 34.6771 133.138 34.2344 131.719 34.2344C130.312 34.2344 129.206 34.6771 128.398 35.5625C127.604 36.4479 127.207 37.6589 127.207 39.1953ZM121.035 57.7109V29.2734H127.441V32.5938C128.327 31.2656 129.323 30.276 130.43 29.625C131.536 28.974 132.767 28.6484 134.121 28.6484C136.895 28.6484 139.102 29.599 140.742 31.5C142.383 33.388 143.203 35.9531 143.203 39.1953C143.203 42.3464 142.383 44.8984 140.742 46.8516C139.115 48.7917 136.986 49.7617 134.355 49.7617C132.689 49.7617 131.328 49.4557 130.273 48.8438C129.232 48.2318 128.301 47.2227 127.48 45.8164C127.546 46.207 127.591 46.6823 127.617 47.2422C127.656 47.8021 127.676 48.4922 127.676 49.3125V57.7109H121.035Z" fill="#1ACAA6"/>
</svg>
