<svg width="28" height="27" viewBox="0 0 28 27" fill="none" xmlns="http://www.w3.org/2000/svg">
<path fill-rule="evenodd" clip-rule="evenodd" d="M7.24534 11.7503C7.24534 11.7503 7.72134 11.6861 8.41201 11.5018C10.2332 11.0159 13.5453 9.69696 13.5453 6.52479C13.5453 6.06195 13.4542 5.60364 13.2771 5.17602C13.0999 4.74841 12.8403 4.35987 12.513 4.03259C12.1858 3.70531 11.7972 3.4457 11.3696 3.26858C10.942 3.09146 10.4837 3.00029 10.0208 3.00029H6.56984C6.10322 2.99429 5.64005 3.08101 5.20721 3.25542C4.77437 3.42984 4.38048 3.68847 4.04838 4.01632C3.71629 4.34417 3.45261 4.73471 3.27264 5.16527C3.09267 5.59583 3 6.05784 3 6.5245C3 6.99116 3.09267 7.45317 3.27264 7.88373C3.45261 8.31429 3.71629 8.70483 4.04838 9.03268C4.38048 9.36053 4.77437 9.61916 5.20721 9.79358C5.64005 9.96799 6.10322 10.0547 6.56984 10.0487H7.24534V11.7503ZM8.41201 8.88204H6.56984C6.25712 8.88696 5.94655 8.82962 5.65621 8.71335C5.36587 8.59708 5.10156 8.42421 4.87868 8.2048C4.6558 7.98539 4.47879 7.72384 4.35797 7.43536C4.23715 7.14689 4.17492 6.83726 4.17492 6.5245C4.17492 6.21174 4.23715 5.90211 4.35797 5.61364C4.47879 5.32516 4.6558 5.06361 4.87868 4.8442C5.10156 4.62479 5.36587 4.45192 5.65621 4.33565C5.94655 4.21938 6.25712 4.16204 6.56984 4.16696H10.0208C10.3305 4.16696 10.6371 4.22795 10.9231 4.34644C11.2092 4.46493 11.4691 4.63861 11.6881 4.85755C11.907 5.0765 12.0807 5.33642 12.1992 5.62249C12.3177 5.90855 12.3787 6.21516 12.3787 6.52479C12.3787 8.03154 11.324 9.03487 9.88843 9.72729C9.41195 9.95367 8.91826 10.1419 8.41201 10.2902V8.88204ZM8.00367 18.167C9.29284 18.167 10.337 17.1228 10.337 15.8336C10.337 14.5445 9.29284 13.5003 8.00367 13.5003C6.71451 13.5003 5.67034 14.5445 5.67034 15.8336C5.67034 17.1228 6.71451 18.167 8.00367 18.167ZM9.17034 15.8336C9.17034 16.143 9.04742 16.4398 8.82863 16.6586C8.60984 16.8774 8.31309 17.0003 8.00367 17.0003C7.69426 17.0003 7.39751 16.8774 7.17872 16.6586C6.95992 16.4398 6.83701 16.143 6.83701 15.8336C6.83701 15.5242 6.95992 15.2275 7.17872 15.0087C7.39751 14.7899 7.69426 14.667 8.00367 14.667C8.31309 14.667 8.60984 14.7899 8.82863 15.0087C9.04742 15.2275 9.17034 15.5242 9.17034 15.8336ZM3.04534 21.8227C3.04534 20.1672 6.34876 19.3336 8.00367 19.3336C9.65859 19.3336 12.962 20.1678 12.962 21.8227V24.0003H3.04534V21.8227ZM4.21201 22.8336V21.8227C4.21201 21.8169 4.21201 21.8052 4.22718 21.776C4.24584 21.7399 4.28842 21.6763 4.38059 21.5911C4.57251 21.4132 4.89393 21.219 5.33901 21.0399C6.23151 20.6811 7.32234 20.5003 8.00367 20.5003C8.68442 20.5003 9.77642 20.6811 10.6683 21.0399C11.1128 21.219 11.4348 21.4132 11.6268 21.5911C11.7189 21.6763 11.7615 21.7399 11.7802 21.7755C11.7953 21.8046 11.7953 21.8175 11.7953 21.8221V22.8336H4.21201ZM21.4203 15.8336C21.4203 17.1228 20.3762 18.167 19.087 18.167C17.7978 18.167 16.7537 17.1228 16.7537 15.8336C16.7537 14.5445 17.7978 13.5003 19.087 13.5003C20.3762 13.5003 21.4203 14.5445 21.4203 15.8336ZM19.087 17.0003C19.3964 17.0003 19.6932 16.8774 19.912 16.6586C20.1308 16.4398 20.2537 16.143 20.2537 15.8336C20.2537 15.5242 20.1308 15.2275 19.912 15.0087C19.6932 14.7899 19.3964 14.667 19.087 14.667C18.7776 14.667 18.4808 14.7899 18.262 15.0087C18.0433 15.2275 17.9203 15.5242 17.9203 15.8336C17.9203 16.143 18.0433 16.4398 18.262 16.6586C18.4808 16.8774 18.7776 17.0003 19.087 17.0003ZM14.1287 21.8227C14.1287 20.1672 17.4321 19.3336 19.087 19.3336C20.7419 19.3336 24.0453 20.1678 24.0453 21.8227V24.0003H14.1287V21.8227ZM15.2953 22.8336V21.8227C15.2953 21.8169 15.2953 21.8052 15.3105 21.776C15.3292 21.7399 15.3718 21.6763 15.4633 21.5911C15.6558 21.4132 15.9778 21.219 16.4223 21.0399C17.3148 20.6811 18.4057 20.5003 19.087 20.5003C19.7678 20.5003 20.8598 20.6811 21.7517 21.0399C22.1962 21.219 22.5182 21.4132 22.7107 21.5911C22.8023 21.6763 22.8448 21.7399 22.8635 21.7755C22.8787 21.8046 22.8787 21.8175 22.8787 21.8221V22.8336H15.2953ZM19.1453 12.0455C19.8278 12.2601 20.312 12.3336 20.312 12.3336V10.632H20.5208C20.9875 10.638 21.4506 10.5513 21.8835 10.3769C22.3163 10.2025 22.7102 9.94386 23.0423 9.61601C23.3744 9.28816 23.6381 8.89763 23.818 8.46707C23.998 8.03651 24.0907 7.57449 24.0907 7.10783C24.0907 6.64117 23.998 6.17916 23.818 5.7486C23.6381 5.31804 23.3744 4.9275 23.0423 4.59966C22.7102 4.27181 22.3163 4.01317 21.8835 3.83876C21.4506 3.66434 20.9875 3.57762 20.5208 3.58363H18.2365C17.3018 3.58363 16.4053 3.95496 15.7443 4.61593C15.0833 5.2769 14.712 6.17337 14.712 7.10812C14.712 10.1975 17.5044 11.5298 19.1453 12.0455ZM20.5208 9.46537H19.1453V10.8146C18.7749 10.6823 18.415 10.5224 18.0685 10.3363C16.8528 9.67654 15.8787 8.68663 15.8787 7.10754C15.8788 6.48231 16.1273 5.88273 16.5695 5.44068C17.0116 4.99863 17.6113 4.75029 18.2365 4.75029H20.5208C20.8336 4.74537 21.1441 4.80272 21.4345 4.91899C21.7248 5.03526 21.9891 5.20813 22.212 5.42753C22.4349 5.64694 22.6119 5.90849 22.7327 6.19697C22.8535 6.48545 22.9158 6.79508 22.9158 7.10783C22.9158 7.42059 22.8535 7.73022 22.7327 8.0187C22.6119 8.30717 22.4349 8.56873 22.212 8.78813C21.9891 9.00754 21.7248 9.18041 21.4345 9.29668C21.1441 9.41295 20.8336 9.47029 20.5208 9.46537Z" fill="black" fill-opacity="0.5"/>
</svg>
