<svg width="120" height="120" viewBox="0 0 120 120" fill="none" xmlns="http://www.w3.org/2000/svg">
<circle cx="60" cy="60" r="60" fill="#1ACAA6"/>
<path d="M83.2781 47.1965L72.8039 36.7246C72.4557 36.3763 72.0423 36.1 71.5872 35.9115C71.1322 35.723 70.6445 35.626 70.152 35.626C69.6594 35.626 69.1717 35.723 68.7167 35.9115C68.2617 36.1 67.8482 36.3763 67.5 36.7246L38.5992 65.6254C38.2495 65.9724 37.9722 66.3854 37.7835 66.8405C37.5948 67.2955 37.4984 67.7836 37.5 68.2762V78.7504C37.5 79.745 37.8951 80.6988 38.5984 81.4021C39.3016 82.1053 40.2555 82.5004 41.25 82.5004H51.7242C52.2169 82.502 52.7049 82.4056 53.16 82.2169C53.615 82.0282 54.0281 81.7509 54.375 81.4012L73.9852 61.7934L74.8008 65.0512L66.1758 73.6739C65.824 74.0254 65.6262 74.5022 65.626 74.9996C65.6258 75.4969 65.8231 75.974 66.1746 76.3258C66.5261 76.6776 67.003 76.8754 67.5004 76.8756C67.9977 76.8758 68.4748 76.6785 68.8266 76.327L78.2016 66.952C78.4309 66.7231 78.597 66.4387 78.6836 66.1265C78.7703 65.8144 78.7746 65.4851 78.6961 65.1707L77.0789 58.6996L83.2781 52.5004C83.6265 52.1522 83.9028 51.7387 84.0913 51.2837C84.2798 50.8287 84.3768 50.341 84.3768 49.8485C84.3768 49.3559 84.2798 48.8682 84.0913 48.4132C83.9028 47.9582 83.6265 47.5447 83.2781 47.1965ZM75 55.4746L64.5281 45.0004L70.1531 39.3754L80.625 49.8496L75 55.4746Z" fill="white"/>
</svg>
