<svg width="55" height="55" viewBox="0 0 55 55" fill="none" xmlns="http://www.w3.org/2000/svg">
<circle cx="27.5" cy="27.5" r="27.5" fill="#6E8B85" fill-opacity="0.2"/>
<circle cx="27" cy="28" r="20" fill="#6E8B85"/>
<path d="M23.6667 23.8333V22.1667C23.6667 21.7246 23.8423 21.3007 24.1548 20.9882C24.4674 20.6756 24.8913 20.5 25.3333 20.5H28.6667C29.1087 20.5 29.5326 20.6756 29.8452 20.9882C30.1577 21.3007 30.3333 21.7246 30.3333 22.1667V23.8333M27 28V28.0083M19.5 25.5C19.5 25.058 19.6756 24.634 19.9882 24.3215C20.3007 24.0089 20.7246 23.8333 21.1667 23.8333H32.8333C33.2754 23.8333 33.6993 24.0089 34.0118 24.3215C34.3244 24.634 34.5 25.058 34.5 25.5V33C34.5 33.442 34.3244 33.866 34.0118 34.1785C33.6993 34.4911 33.2754 34.6667 32.8333 34.6667H21.1667C20.7246 34.6667 20.3007 34.4911 19.9882 34.1785C19.6756 33.866 19.5 33.442 19.5 33V25.5Z" stroke="#F8F8F8" stroke-width="2.66667" stroke-linecap="round" stroke-linejoin="round"/>
<path d="M19.5 28.8334C21.8263 30.0056 24.395 30.6162 27 30.6162C29.605 30.6162 32.1737 30.0056 34.5 28.8334" stroke="#F8F8F8" stroke-width="2.66667" stroke-linecap="round" stroke-linejoin="round"/>
</svg>
