<svg width="55" height="55" viewBox="0 0 55 55" fill="none" xmlns="http://www.w3.org/2000/svg">
<circle cx="27.5" cy="27.5" r="27.5" fill="#031814" fill-opacity="0.2"/>
<circle cx="28" cy="28" r="20" fill="#2D2F30"/>
<path d="M34.6666 34.6666L31.2916 31.2916M31.2916 31.2916C31.8333 30.7499 32.263 30.1068 32.5562 29.3991C32.8494 28.6913 33.0003 27.9327 33.0003 27.1666C33.0003 26.4006 32.8494 25.642 32.5562 24.9342C32.263 24.2264 31.8333 23.5833 31.2916 23.0416C30.7499 22.4999 30.1068 22.0702 29.3991 21.7771C28.6913 21.4839 27.9327 21.333 27.1666 21.333C26.4006 21.333 25.642 21.4839 24.9342 21.7771C24.2264 22.0702 23.5833 22.4999 23.0416 23.0416C21.9476 24.1357 21.333 25.6195 21.333 27.1666C21.333 28.7138 21.9476 30.1976 23.0416 31.2916C24.1357 32.3857 25.6195 33.0003 27.1666 33.0003C28.7138 33.0003 30.1976 32.3857 31.2916 31.2916Z" stroke="#F8F8F8" stroke-width="2.66667" stroke-linecap="round" stroke-linejoin="round"/>
</svg>
