<svg width="55" height="55" viewBox="0 0 55 55" fill="none" xmlns="http://www.w3.org/2000/svg">
<circle cx="27.5" cy="27.5" r="27.5" fill="#1F3468" fill-opacity="0.2"/>
<circle cx="28" cy="28" r="20" fill="#1F3468"/>
<path d="M25.0833 31.8217L21.9225 28.6608C21.7653 28.509 21.5548 28.4251 21.3363 28.427C21.1178 28.4289 20.9088 28.5165 20.7543 28.671C20.5998 28.8255 20.5122 29.0345 20.5103 29.253C20.5084 29.4715 20.5924 29.682 20.7442 29.8392L24.4942 33.5892C24.6505 33.7454 24.8624 33.8332 25.0833 33.8332C25.3043 33.8332 25.5162 33.7454 25.6725 33.5892L34.8392 24.4225C34.991 24.2653 35.075 24.0548 35.0731 23.8363C35.0712 23.6178 34.9835 23.4088 34.829 23.2543C34.6745 23.0998 34.4655 23.0122 34.247 23.0103C34.0285 23.0084 33.818 23.0924 33.6608 23.2442L25.0833 31.8217Z" fill="#F8F8F8"/>
</svg>
