<svg width="55" height="55" viewBox="0 0 55 55" fill="none" xmlns="http://www.w3.org/2000/svg">
<circle cx="27.5" cy="27.5" r="27.5" fill="#1ACAA6" fill-opacity="0.2"/>
<circle cx="28" cy="28" r="20" fill="#1ACAA6"/>
<path d="M33.0001 30.5H31.3334V32.1667H33.0001M33.0001 27.1667H31.3334V28.8333H33.0001M34.6667 33.8333H28.0001V32.1667H29.6667V30.5H28.0001V28.8333H29.6667V27.1667H28.0001V25.5H34.6667M26.3334 23.8333H24.6667V22.1667H26.3334M26.3334 27.1667H24.6667V25.5H26.3334M26.3334 30.5H24.6667V28.8333H26.3334M26.3334 33.8333H24.6667V32.1667H26.3334M23.0001 23.8333H21.3334V22.1667H23.0001M23.0001 27.1667H21.3334V25.5H23.0001M23.0001 30.5H21.3334V28.8333H23.0001M23.0001 33.8333H21.3334V32.1667H23.0001M28.0001 23.8333V20.5H19.6667V35.5H36.3334V23.8333H28.0001Z" fill="#F8F8F8"/>
</svg>
