<svg width="55" height="55" viewBox="0 0 55 55" fill="none" xmlns="http://www.w3.org/2000/svg">
<circle cx="27.5" cy="27.5" r="27.5" fill="#0A6251" fill-opacity="0.2"/>
<circle cx="28" cy="28" r="20" fill="#0A6251"/>
<path d="M26.3334 21.3333C25.4494 21.3333 24.6015 21.6845 23.9764 22.3096C23.3513 22.9347 23.0001 23.7826 23.0001 24.6666C23.0001 25.5507 23.3513 26.3985 23.9764 27.0236C24.6015 27.6488 25.4494 28 26.3334 28C27.2175 28 28.0653 27.6488 28.6904 27.0236C29.3156 26.3985 29.6667 25.5507 29.6667 24.6666C29.6667 23.7826 29.3156 22.9347 28.6904 22.3096C28.0653 21.6845 27.2175 21.3333 26.3334 21.3333ZM21.3334 24.6666C21.3334 23.3405 21.8602 22.0688 22.7979 21.1311C23.7356 20.1934 25.0073 19.6666 26.3334 19.6666C27.6595 19.6666 28.9313 20.1934 29.8689 21.1311C30.8066 22.0688 31.3334 23.3405 31.3334 24.6666C31.3334 25.9927 30.8066 27.2645 29.8689 28.2022C28.9313 29.1398 27.6595 29.6666 26.3334 29.6666C25.0073 29.6666 23.7356 29.1398 22.7979 28.2022C21.8602 27.2645 21.3334 25.9927 21.3334 24.6666ZM32.0234 21.1308C32.1008 21.0533 32.1927 20.9918 32.2939 20.9499C32.395 20.908 32.5035 20.8864 32.613 20.8864C32.7225 20.8864 32.8309 20.908 32.9321 20.9499C33.0333 20.9918 33.1252 21.0533 33.2026 21.1308C33.667 21.5951 34.0353 22.1463 34.2867 22.753C34.538 23.3597 34.6673 24.0099 34.6673 24.6666C34.6673 25.3233 34.538 25.9736 34.2867 26.5802C34.0353 27.1869 33.667 27.7382 33.2026 28.2025C33.1252 28.2799 33.0332 28.3413 32.9321 28.3832C32.8309 28.4251 32.7225 28.4467 32.613 28.4467C32.5035 28.4467 32.3951 28.4251 32.2939 28.3832C32.1928 28.3413 32.1008 28.2799 32.0234 28.2025C31.946 28.125 31.8846 28.0331 31.8427 27.932C31.8008 27.8308 31.7792 27.7224 31.7792 27.6129C31.7792 27.5034 31.8008 27.395 31.8427 27.2938C31.8846 27.1926 31.946 27.1007 32.0234 27.0233C32.6483 26.3982 32.9994 25.5505 32.9994 24.6666C32.9994 23.7827 32.6483 22.9351 32.0234 22.31C31.9459 22.2326 31.8845 22.1407 31.8425 22.0395C31.8006 21.9383 31.779 21.8299 31.779 21.7204C31.779 21.6109 31.8006 21.5024 31.8425 21.4013C31.8845 21.3001 31.9459 21.2082 32.0234 21.1308ZM32.6084 31.9641C32.6621 31.7499 32.7987 31.5658 32.9881 31.4522C33.1774 31.3386 33.4042 31.3048 33.6184 31.3583C34.7251 31.635 35.4259 32.3416 35.8284 33.1483C36.2184 33.9275 36.3334 34.7983 36.3334 35.5C36.3334 35.721 36.2456 35.9329 36.0893 36.0892C35.9331 36.2455 35.7211 36.3333 35.5001 36.3333C35.2791 36.3333 35.0671 36.2455 34.9108 36.0892C34.7545 35.9329 34.6667 35.721 34.6667 35.5C34.6667 34.9525 34.5734 34.3641 34.3384 33.8933C34.1159 33.4491 33.7742 33.115 33.2142 32.975C33.0001 32.9212 32.8159 32.7847 32.7023 32.5953C32.5887 32.4059 32.555 32.1784 32.6084 31.9641ZM23.4167 33C22.3667 33 21.3334 34.0108 21.3334 35.5C21.3334 35.721 21.2456 35.9329 21.0893 36.0892C20.9331 36.2455 20.7211 36.3333 20.5001 36.3333C20.2791 36.3333 20.0671 36.2455 19.9108 36.0892C19.7545 35.9329 19.6667 35.721 19.6667 35.5C19.6667 33.3066 21.2442 31.3333 23.4167 31.3333H29.2501C31.4226 31.3333 33.0001 33.3066 33.0001 35.5C33.0001 35.721 32.9123 35.9329 32.756 36.0892C32.5997 36.2455 32.3878 36.3333 32.1667 36.3333C31.9457 36.3333 31.7338 36.2455 31.5775 36.0892C31.4212 35.9329 31.3334 35.721 31.3334 35.5C31.3334 34.0108 30.3001 33 29.2501 33H23.4167Z" fill="#F8F8F8"/>
</svg>
