<svg width="88" height="70" viewBox="0 0 88 70" fill="none" xmlns="http://www.w3.org/2000/svg">
<rect x="0.854004" width="86.7597" height="70" rx="8" fill="white"/>
<path d="M55.3065 12.4379C49.8898 9.97296 43.7337 9.35411 37.8871 10.6868C32.0405 12.0194 26.8651 15.2212 23.2428 19.7464C19.6205 24.2716 17.7754 29.8404 18.0218 35.5038C18.2683 41.1673 20.5911 46.575 24.5944 50.8056C28.5978 55.0361 34.034 57.8278 39.9767 58.7049C45.9195 59.582 52.0012 58.4903 57.1855 55.6157C62.3699 52.7412 66.3361 48.2617 68.4084 42.9404C70.4807 37.6192 70.5308 31.7855 68.5503 26.4334L61.9474 28.6029C63.3952 32.5156 63.3585 36.7803 61.8436 40.6703C60.3287 44.5604 57.4292 47.8351 53.6392 49.9365C49.8492 52.038 45.4033 52.8361 41.0588 52.1949C36.7144 51.5537 32.7403 49.5128 29.8137 46.4201C26.887 43.3274 25.189 39.3741 25.0088 35.2339C24.8286 31.0936 26.1775 27.0226 28.8256 23.7145C31.4736 20.4063 35.257 18.0657 39.5312 17.0915C43.8053 16.1172 48.3057 16.5696 52.2656 18.3716L55.3065 12.4379Z" fill="#1ACAA6"/>
</svg>
