<svg width="24" height="23" viewBox="0 0 24 23" fill="none" xmlns="http://www.w3.org/2000/svg">
<g clip-path="url(#clip0_124_4294)">
<path d="M0 16.75V12.25H4.5V16.75H0ZM1.5 13.75V15.25H3V13.75H1.5ZM0 10.75V6.25H4.5V10.75H0ZM1.5 7.75V9.25H3V7.75H1.5ZM0 4.75V0.25H4.5V4.75H0ZM1.5 1.75V3.25H3V1.75H1.5ZM7.5 9.25V7.75H21V9.25H7.5ZM18 13.75V15.25H7.5V13.75H18ZM7.5 1.75H24V3.25H7.5V1.75ZM0 22.75V18.25H4.5V22.75H0ZM1.5 19.75V21.25H3V19.75H1.5ZM7.5 21.25V19.75H21V21.25H7.5Z" fill="inherit" fill-opacity="0.5"/>
</g>
<defs>
<clipPath id="clip0_124_4294">
<rect width="24" height="22.5" fill="white" transform="translate(0 0.25)"/>
</clipPath>
</defs>
</svg>
