<svg width="24" height="25" viewBox="0 0 24 25" fill="none" xmlns="http://www.w3.org/2000/svg">
<g clip-path="url(#clip0_112_5418)">
<path d="M5.99997 13.3578C6.47335 13.3578 6.85711 12.9741 6.85711 12.5007C6.85711 12.0273 6.47335 11.6436 5.99997 11.6436C5.52658 11.6436 5.14282 12.0273 5.14282 12.5007C5.14282 12.9741 5.52658 13.3578 5.99997 13.3578Z" stroke="inherit" stroke-width="2.28571" stroke-linecap="round" stroke-linejoin="round"/>
<path d="M11.5715 13.3578C12.0449 13.3578 12.4286 12.9741 12.4286 12.5007C12.4286 12.0273 12.0449 11.6436 11.5715 11.6436C11.0981 11.6436 10.7144 12.0273 10.7144 12.5007C10.7144 12.9741 11.0981 13.3578 11.5715 13.3578Z" stroke="inherit" stroke-width="2.28571" stroke-linecap="round" stroke-linejoin="round"/>
<path d="M17.1428 13.3578C17.6162 13.3578 17.9999 12.9741 17.9999 12.5007C17.9999 12.0273 17.6162 11.6436 17.1428 11.6436C16.6694 11.6436 16.2856 12.0273 16.2856 12.5007C16.2856 12.9741 16.6694 13.3578 17.1428 13.3578Z" stroke="inherit" stroke-width="2.28571" stroke-linecap="round" stroke-linejoin="round"/>
<path d="M12 1.35742C9.98445 1.35805 8.00677 1.90538 6.27765 2.9411C4.54853 3.97683 3.13272 5.46217 2.18101 7.23892C1.2293 9.01568 0.777345 11.0173 0.873274 13.0306C0.969202 15.0439 1.60942 16.9935 2.72575 18.6717L0.857178 23.6431L7.11432 22.5117C8.62102 23.248 10.2745 23.6347 11.9514 23.643C13.6284 23.6513 15.2856 23.281 16.7995 22.5597C18.3134 21.8384 19.645 20.7846 20.695 19.477C21.745 18.1695 22.4863 16.6417 22.8637 15.0078C23.241 13.3738 23.2447 11.6758 22.8745 10.0402C22.5043 8.40456 21.7696 6.87363 20.7253 5.56148C19.6811 4.24933 18.3541 3.1898 16.8433 2.46189C15.3326 1.73397 13.677 1.35643 12 1.35742Z" stroke="inherit" stroke-width="2.28571" stroke-linecap="round" stroke-linejoin="round"/>
</g>
<defs>
<clipPath id="clip0_112_5418">
<rect width="24" height="24" fill="white" transform="translate(0 0.5)"/>
</clipPath>
</defs>
</svg>
