<svg width="24" height="25" viewBox="0 0 24 25" fill="none" xmlns="http://www.w3.org/2000/svg">
<path d="M9.75 2V5L8.25 5.75L6 3.5L3 6.5L5.25 8.75L4.5 10.25H1.5V14.75H4.5L5.25 16.25L3 18.5L6 21.5L8.25 19.25L9.75 20V23H14.25V20L15.75 19.25L18 21.5L21 18.5L18.75 16.25L19.5 14.75H22.5V10.25H19.5L18.75 8.75L21 6.5L18 3.5L15.75 5.75L14.25 5V2H9.75Z" stroke="inherit" stroke-width="2" stroke-linecap="round" stroke-linejoin="round"/>
<path d="M12 15.5C13.6569 15.5 15 14.1569 15 12.5C15 10.8431 13.6569 9.5 12 9.5C10.3431 9.5 9 10.8431 9 12.5C9 14.1569 10.3431 15.5 12 15.5Z" stroke="inherit" stroke-width="2" stroke-linecap="round" stroke-linejoin="round"/>
</svg>
