<svg width="24" height="25" viewBox="0 0 24 25" fill="none" xmlns="http://www.w3.org/2000/svg">
<path d="M10 8C10 7.86739 10.0527 7.74021 10.1464 7.64645C10.2402 7.55268 10.3674 7.5 10.5 7.5H14.5C14.6326 7.5 14.7598 7.55268 14.8536 7.64645C14.9473 7.74021 15 7.86739 15 8C15 8.13261 14.9473 8.25979 14.8536 8.35355C14.7598 8.44732 14.6326 8.5 14.5 8.5H10.5C10.3674 8.5 10.2402 8.44732 10.1464 8.35355C10.0527 8.25979 10 8.13261 10 8ZM10.5 9.5C10.3674 9.5 10.2402 9.55268 10.1464 9.64645C10.0527 9.74021 10 9.86739 10 10C10 10.1326 10.0527 10.2598 10.1464 10.3536C10.2402 10.4473 10.3674 10.5 10.5 10.5H14.5C14.6326 10.5 14.7598 10.4473 14.8536 10.3536C14.9473 10.2598 15 10.1326 15 10C15 9.86739 14.9473 9.74021 14.8536 9.64645C14.7598 9.55268 14.6326 9.5 14.5 9.5H10.5ZM10 14.5C10 14.3674 10.0527 14.2402 10.1464 14.1464C10.2402 14.0527 10.3674 14 10.5 14H14.5C14.6326 14 14.7598 14.0527 14.8536 14.1464C14.9473 14.2402 15 14.3674 15 14.5C15 14.6326 14.9473 14.7598 14.8536 14.8536C14.7598 14.9473 14.6326 15 14.5 15H10.5C10.3674 15 10.2402 14.9473 10.1464 14.8536C10.0527 14.7598 10 14.6326 10 14.5ZM10.5 16C10.3674 16 10.2402 16.0527 10.1464 16.1464C10.0527 16.2402 10 16.3674 10 16.5C10 16.6326 10.0527 16.7598 10.1464 16.8536C10.2402 16.9473 10.3674 17 10.5 17H14.5C14.6326 17 14.7598 16.9473 14.8536 16.8536C14.9473 16.7598 15 16.6326 15 16.5C15 16.3674 14.9473 16.2402 14.8536 16.1464C14.7598 16.0527 14.6326 16 14.5 16H10.5Z" fill="inherit" fill-opacity="0.5"/>
<path fill-rule="evenodd" clip-rule="evenodd" d="M5 14C5 13.8674 5.05268 13.7402 5.14645 13.6464C5.24021 13.5527 5.36739 13.5 5.5 13.5H8C8.13261 13.5 8.25979 13.5527 8.35355 13.6464C8.44732 13.7402 8.5 13.8674 8.5 14V16.5C8.5 16.6326 8.44732 16.7598 8.35355 16.8536C8.25979 16.9473 8.13261 17 8 17H5.5C5.36739 17 5.24021 16.9473 5.14645 16.8536C5.05268 16.7598 5 16.6326 5 16.5V14ZM6 14.5V16H7.5V14.5H6Z" fill="inherit" fill-opacity="0.5"/>
<path d="M8.85322 8.3537C8.94429 8.2594 8.99469 8.1331 8.99355 8.002C8.99241 7.8709 8.93983 7.7455 8.84712 7.65279C8.75442 7.56009 8.62901 7.50751 8.49792 7.50637C8.36682 7.50523 8.24052 7.55562 8.14622 7.6467L6.49972 9.2932L5.85322 8.6467C5.75891 8.55562 5.63261 8.50523 5.50151 8.50637C5.37042 8.50751 5.24501 8.56009 5.15231 8.65279C5.0596 8.7455 5.00702 8.8709 5.00588 9.002C5.00474 9.1331 5.05514 9.2594 5.14622 9.3537L6.49972 10.7072L8.85322 8.3537Z" fill="inherit" fill-opacity="0.5"/>
<path fill-rule="evenodd" clip-rule="evenodd" d="M5 3.5C4.46957 3.5 3.96086 3.71071 3.58579 4.08579C3.21071 4.46086 3 4.96957 3 5.5V19.5C3 20.0304 3.21071 20.5391 3.58579 20.9142C3.96086 21.2893 4.46957 21.5 5 21.5H15C15.5304 21.5 16.0391 21.2893 16.4142 20.9142C16.7893 20.5391 17 20.0304 17 19.5V5.5C17 4.96957 16.7893 4.46086 16.4142 4.08579C16.0391 3.71071 15.5304 3.5 15 3.5H5ZM4 5.5C4 5.23478 4.10536 4.98043 4.29289 4.79289C4.48043 4.60536 4.73478 4.5 5 4.5H15C15.2652 4.5 15.5196 4.60536 15.7071 4.79289C15.8946 4.98043 16 5.23478 16 5.5V19.5C16 19.7652 15.8946 20.0196 15.7071 20.2071C15.5196 20.3946 15.2652 20.5 15 20.5H5C4.73478 20.5 4.48043 20.3946 4.29289 20.2071C4.10536 20.0196 4 19.7652 4 19.5V5.5ZM18 8.5C18 8.10218 18.158 7.72064 18.4393 7.43934C18.7206 7.15804 19.1022 7 19.5 7C19.8978 7 20.2794 7.15804 20.5607 7.43934C20.842 7.72064 21 8.10218 21 8.5V18.6515L19.5 20.9015L18 18.6515V8.5ZM19.5 8C19.3674 8 19.2402 8.05268 19.1464 8.14645C19.0527 8.24021 19 8.36739 19 8.5V9.5H20V8.5C20 8.36739 19.9473 8.24021 19.8536 8.14645C19.7598 8.05268 19.6326 8 19.5 8ZM19.5 19.0985L19 18.3485V10.5H20V18.3485L19.5 19.0985Z" fill="inherit" fill-opacity="0.5"/>
</svg>
