<svg width="24" height="24" viewBox="0 0 24 24" fill="none" xmlns="http://www.w3.org/2000/svg">
<g clip-path="url(#clip0_91_6559)">
<mask id="path-1-inside-1_91_6559" fill="white">
<path d="M0.247277 23.985C0.332655 24.01 0.423361 23.9962 0.499734 23.9465C0.576107 23.8968 0.631993 23.8152 0.655277 23.7195C1.34194 20.8372 4.13261 20.0903 5.80061 19.6432C6.21861 19.5315 6.54861 19.443 6.76328 19.3387C8.66328 18.411 9.28261 16.9185 9.46794 15.8295C9.47896 15.7647 9.4746 15.6978 9.45528 15.6355C9.43597 15.5732 9.40239 15.5178 9.35794 15.4747C8.36861 14.514 7.53394 13.0717 7.00728 11.4128C6.99242 11.3652 6.96905 11.3215 6.93861 11.2845C6.24194 10.4325 5.84194 9.53175 5.84194 8.814C5.84194 8.39475 5.98261 8.1135 6.29928 7.90125C6.34671 7.86935 6.38635 7.82468 6.41463 7.77127C6.44291 7.71785 6.45894 7.65737 6.46128 7.59525C6.60861 3.77475 9.02728 0.76725 11.9939 0.74775L12.0653 0.753C15.0466 0.7995 17.4499 3.8715 17.5359 7.746C17.5371 7.79896 17.5484 7.85102 17.5688 7.89874C17.5893 7.94645 17.6185 7.98873 17.6546 8.02275C17.8633 8.2215 17.9606 8.4735 17.9606 8.8155C17.9606 9.41625 17.6759 10.155 17.1599 10.8945C17.1354 10.9301 17.1164 10.9702 17.1039 11.013C16.5706 12.915 15.6133 14.5943 14.4786 15.6217C14.4316 15.6645 14.3958 15.7207 14.3749 15.7845C14.354 15.8482 14.3488 15.9172 14.3599 15.984C14.5453 17.0723 15.1646 18.564 17.0646 19.4932C17.2893 19.6027 17.6379 19.6882 18.0799 19.7955C19.7313 20.1975 22.4946 20.8717 23.1726 23.7195C23.184 23.7671 23.2036 23.8117 23.2303 23.8507C23.257 23.8898 23.2903 23.9225 23.3282 23.9471C23.3662 23.9717 23.408 23.9876 23.4515 23.994C23.4949 24.0004 23.539 23.9971 23.5813 23.9842C23.6236 23.9714 23.6632 23.9494 23.6979 23.9194C23.7326 23.8893 23.7617 23.8519 23.7836 23.8092C23.8054 23.7665 23.8196 23.7194 23.8253 23.6705C23.8309 23.6217 23.828 23.5721 23.8166 23.5245C23.0333 20.2342 19.9026 19.4715 18.2213 19.062C17.8313 18.9668 17.4946 18.885 17.3306 18.804C16.0906 18.198 15.3266 17.2747 15.0566 16.0553C16.2079 14.943 17.1713 13.227 17.7219 11.3025C18.3066 10.4475 18.6279 9.567 18.6279 8.81475C18.6279 8.313 18.4839 7.8945 18.1986 7.5675C18.0399 3.3645 15.3739 0.05475 12.0653 0.0015L11.9659 0C8.71728 0.0195 6.03994 3.24225 5.80594 7.3725C5.38861 7.7175 5.17661 8.20125 5.17661 8.8155C5.17661 9.70275 5.62261 10.764 6.40328 11.7375C6.94261 13.4047 7.77861 14.8695 8.77394 15.8947C8.50528 17.1187 7.74061 18.045 6.49794 18.6517C6.33728 18.7305 6.01728 18.8167 5.64661 18.9158C3.95261 19.3687 0.80061 20.2125 0.0112771 23.526C-0.0115186 23.6221 0.000537535 23.7244 0.0447942 23.8105C0.0890509 23.8966 0.161884 23.9593 0.247277 23.985Z"/>
</mask>
<path d="M0.247277 23.985C0.332655 24.01 0.423361 23.9962 0.499734 23.9465C0.576107 23.8968 0.631993 23.8152 0.655277 23.7195C1.34194 20.8372 4.13261 20.0903 5.80061 19.6432C6.21861 19.5315 6.54861 19.443 6.76328 19.3387C8.66328 18.411 9.28261 16.9185 9.46794 15.8295C9.47896 15.7647 9.4746 15.6978 9.45528 15.6355C9.43597 15.5732 9.40239 15.5178 9.35794 15.4747C8.36861 14.514 7.53394 13.0717 7.00728 11.4128C6.99242 11.3652 6.96905 11.3215 6.93861 11.2845C6.24194 10.4325 5.84194 9.53175 5.84194 8.814C5.84194 8.39475 5.98261 8.1135 6.29928 7.90125C6.34671 7.86935 6.38635 7.82468 6.41463 7.77127C6.44291 7.71785 6.45894 7.65737 6.46128 7.59525C6.60861 3.77475 9.02728 0.76725 11.9939 0.74775L12.0653 0.753C15.0466 0.7995 17.4499 3.8715 17.5359 7.746C17.5371 7.79896 17.5484 7.85102 17.5688 7.89874C17.5893 7.94645 17.6185 7.98873 17.6546 8.02275C17.8633 8.2215 17.9606 8.4735 17.9606 8.8155C17.9606 9.41625 17.6759 10.155 17.1599 10.8945C17.1354 10.9301 17.1164 10.9702 17.1039 11.013C16.5706 12.915 15.6133 14.5943 14.4786 15.6217C14.4316 15.6645 14.3958 15.7207 14.3749 15.7845C14.354 15.8482 14.3488 15.9172 14.3599 15.984C14.5453 17.0723 15.1646 18.564 17.0646 19.4932C17.2893 19.6027 17.6379 19.6882 18.0799 19.7955C19.7313 20.1975 22.4946 20.8717 23.1726 23.7195C23.184 23.7671 23.2036 23.8117 23.2303 23.8507C23.257 23.8898 23.2903 23.9225 23.3282 23.9471C23.3662 23.9717 23.408 23.9876 23.4515 23.994C23.4949 24.0004 23.539 23.9971 23.5813 23.9842C23.6236 23.9714 23.6632 23.9494 23.6979 23.9194C23.7326 23.8893 23.7617 23.8519 23.7836 23.8092C23.8054 23.7665 23.8196 23.7194 23.8253 23.6705C23.8309 23.6217 23.828 23.5721 23.8166 23.5245C23.0333 20.2342 19.9026 19.4715 18.2213 19.062C17.8313 18.9668 17.4946 18.885 17.3306 18.804C16.0906 18.198 15.3266 17.2747 15.0566 16.0553C16.2079 14.943 17.1713 13.227 17.7219 11.3025C18.3066 10.4475 18.6279 9.567 18.6279 8.81475C18.6279 8.313 18.4839 7.8945 18.1986 7.5675C18.0399 3.3645 15.3739 0.05475 12.0653 0.0015L11.9659 0C8.71728 0.0195 6.03994 3.24225 5.80594 7.3725C5.38861 7.7175 5.17661 8.20125 5.17661 8.8155C5.17661 9.70275 5.62261 10.764 6.40328 11.7375C6.94261 13.4047 7.77861 14.8695 8.77394 15.8947C8.50528 17.1187 7.74061 18.045 6.49794 18.6517C6.33728 18.7305 6.01728 18.8167 5.64661 18.9158C3.95261 19.3687 0.80061 20.2125 0.0112771 23.526C-0.0115186 23.6221 0.000537535 23.7244 0.0447942 23.8105C0.0890509 23.8966 0.161884 23.9593 0.247277 23.985Z" fill="inherit" fill-opacity="0.5"/>
<path d="M0.247277 23.985L-0.616439 26.858L-0.60655 26.8609L-0.596641 26.8639L0.247277 23.985ZM0.655277 23.7195L3.57033 24.4285L3.5736 24.4148L0.655277 23.7195ZM5.80061 19.6432L5.02579 16.745L5.02406 16.7455L5.80061 19.6432ZM6.76328 19.3387L8.07382 22.0374L8.0796 22.0345L6.76328 19.3387ZM9.46794 15.8295L12.4254 16.3328L12.4255 16.3325L9.46794 15.8295ZM9.35794 15.4747L7.26794 17.6269L7.27154 17.6304L9.35794 15.4747ZM7.00728 11.4128L4.14363 12.307L4.1479 12.3205L7.00728 11.4128ZM6.93861 11.2845L4.61616 13.1835L4.62128 13.1897L6.93861 11.2845ZM6.29928 7.90125L7.96958 10.3933L7.97345 10.3907L6.29928 7.90125ZM6.46128 7.59525L3.4635 7.47964L3.4634 7.48236L6.46128 7.59525ZM11.9939 0.74775L12.2141 -2.24416L12.0943 -2.25297L11.9742 -2.25219L11.9939 0.74775ZM12.0653 0.753L11.8451 3.74491L11.9317 3.75128L12.0185 3.75264L12.0653 0.753ZM17.5359 7.746L14.5367 7.81257L14.5367 7.8141L17.5359 7.746ZM17.6546 8.02275L19.7237 5.85044L19.7181 5.84507L19.7124 5.83973L17.6546 8.02275ZM17.1599 10.8945L14.6996 9.17778L14.692 9.18881L17.1599 10.8945ZM17.1039 11.013L14.2234 10.1747L14.2193 10.1889L14.2154 10.203L17.1039 11.013ZM14.4786 15.6217L12.4649 13.398L12.4612 13.4014L14.4786 15.6217ZM14.3599 15.984L11.4007 16.4769L11.4025 16.4877L14.3599 15.984ZM17.0646 19.4932L15.7466 22.1882L15.7502 22.19L17.0646 19.4932ZM18.0799 19.7955L18.7895 16.8806L18.7874 16.8801L18.0799 19.7955ZM23.1726 23.7195L20.2542 24.4143L20.2549 24.4175L23.1726 23.7195ZM23.8166 23.5245L20.8982 24.2193L20.899 24.2225L23.8166 23.5245ZM18.2213 19.062L17.5095 21.9763L17.5114 21.9768L18.2213 19.062ZM17.3306 18.804L18.6591 16.1142L18.6479 16.1087L17.3306 18.804ZM15.0566 16.0553L12.9722 13.8976L11.7646 15.0643L12.1275 16.7038L15.0566 16.0553ZM17.7219 11.3025L15.2456 9.60911L14.9713 10.0101L14.8377 10.4772L17.7219 11.3025ZM18.1986 7.5675L15.2007 7.68067L15.2408 8.74066L15.9382 9.53991L18.1986 7.5675ZM12.0653 0.0015L12.1136 -2.99811L12.1106 -2.99816L12.0653 0.0015ZM11.9659 0L12.0112 -2.99966L11.9796 -3.00014L11.9479 -2.99995L11.9659 0ZM5.80594 7.3725L7.7174 9.68472L8.72704 8.85007L8.80114 7.54219L5.80594 7.3725ZM6.40328 11.7375L9.25765 10.8141L9.08817 10.2902L8.74369 9.86068L6.40328 11.7375ZM8.77394 15.8947L11.7042 16.5379L12.05 14.9624L10.9264 13.8051L8.77394 15.8947ZM6.49794 18.6517L5.18167 15.9559L5.17758 15.9579L6.49794 18.6517ZM5.64661 18.9158L4.87249 16.0173L4.8716 16.0176L5.64661 18.9158ZM0.0112771 23.526L-2.90706 22.8308L-2.90768 22.8334L0.0112771 23.526ZM-0.596641 26.8639C0.352063 27.142 1.34606 26.975 2.136 26.461L-1.13653 21.432C-0.499337 21.0174 0.313247 20.8781 1.0912 21.1061L-0.596641 26.8639ZM2.136 26.461C2.9079 25.9587 3.38244 25.2009 3.5703 24.4285L-2.25975 23.0105C-2.11845 22.4296 -1.75569 21.8349 -1.13653 21.432L2.136 26.461ZM3.5736 24.4148C3.68991 23.9266 3.94166 23.6213 4.41805 23.3318C4.99075 22.9837 5.69908 22.7763 6.57717 22.541L5.02406 16.7455C3.65962 17.1111 -1.10839 18.1776 -2.26305 23.0242L3.5736 24.4148ZM6.57543 22.5415C6.86257 22.4647 7.53655 22.2983 8.07382 22.0374L5.45273 16.6401C5.48607 16.624 5.51164 16.6129 5.52706 16.6065C5.54263 16.6 5.55154 16.5968 5.55214 16.5966C5.55285 16.5963 5.54792 16.5981 5.53611 16.602C5.52438 16.6059 5.50786 16.6111 5.48556 16.6179C5.38237 16.6493 5.24824 16.6856 5.02579 16.745L6.57543 22.5415ZM8.0796 22.0345C11.0616 20.5785 12.1225 18.1126 12.4254 16.3328L6.51047 15.3262C6.47145 15.5555 6.39385 15.7828 6.26004 15.9841C6.13948 16.1655 5.91764 16.4131 5.44695 16.643L8.0796 22.0345ZM12.4255 16.3325C12.5149 15.8069 12.4807 15.2631 12.3207 14.747L6.58987 16.524C6.46847 16.1325 6.44305 15.7225 6.51042 15.3265L12.4255 16.3325ZM12.3207 14.747C12.1606 14.2306 11.8705 13.7315 11.4443 13.3191L7.27154 17.6304C6.93431 17.304 6.71137 16.9158 6.58987 16.524L12.3207 14.747ZM11.4479 13.3226C10.895 12.7856 10.2819 11.8131 9.86665 10.505L4.1479 12.3205C4.78597 14.3304 5.84224 16.2424 7.26794 17.6269L11.4479 13.3226ZM9.87089 10.5185C9.74548 10.1169 9.54172 9.72684 9.25594 9.37925L4.62128 13.1897C4.39638 12.9162 4.23936 12.6135 4.14366 12.307L9.87089 10.5185ZM9.26105 9.38548C9.05687 9.13577 8.93408 8.92378 8.87097 8.78162C8.80081 8.6236 8.84194 8.63969 8.84194 8.814H2.84194C2.84194 10.5091 3.70426 12.0683 4.61617 13.1835L9.26105 9.38548ZM8.84194 8.814C8.84194 8.93806 8.82063 9.25129 8.63424 9.62344C8.4389 10.0135 8.1664 10.2613 7.96958 10.3933L4.62898 5.40924C4.11549 5.75342 3.61432 6.24804 3.26948 6.93656C2.93359 7.60721 2.84194 8.27069 2.84194 8.814H8.84194ZM7.97345 10.3907C8.45469 10.067 8.8201 9.6394 9.06599 9.17493L3.76327 6.3676C3.9526 6.00997 4.23873 5.67169 4.6251 5.41184L7.97345 10.3907ZM9.06599 9.17493C9.31147 8.71125 9.44033 8.20786 9.45915 7.70814L3.4634 7.48236C3.47754 7.10687 3.57434 6.72446 3.76327 6.3676L9.06599 9.17493ZM9.45905 7.71086C9.57229 4.77446 11.2839 3.75248 12.0137 3.74769L11.9742 -2.25219C6.77064 -2.21798 3.64493 2.77504 3.46351 7.47964L9.45905 7.71086ZM11.7737 3.73966L11.8451 3.74491L12.2855 -2.23891L12.2141 -2.24416L11.7737 3.73966ZM12.0185 3.75264C12.7408 3.7639 14.4701 4.81435 14.5367 7.81257L20.5352 7.67943C20.4298 2.92865 17.3524 -2.1649 12.1121 -2.24664L12.0185 3.75264ZM14.5367 7.8141C14.5464 8.24253 14.6369 8.67352 14.8116 9.081L20.326 6.71648C20.4598 7.02852 20.5278 7.35539 20.5352 7.6779L14.5367 7.8141ZM14.8116 9.081C14.9864 9.48872 15.2475 9.8765 15.5968 10.2058L19.7124 5.83973C19.9895 6.10095 20.1921 6.40419 20.326 6.71648L14.8116 9.081ZM15.5855 10.1951C15.3848 10.0039 15.204 9.74851 15.0872 9.44586C14.9766 9.15934 14.9606 8.92745 14.9606 8.8155H20.9606C20.9606 7.8178 20.6367 6.7201 19.7237 5.85044L15.5855 10.1951ZM14.9606 8.8155C14.9606 8.65803 14.9938 8.62215 14.9543 8.72466C14.9185 8.81742 14.8416 8.97435 14.6997 9.1778L19.6202 12.6112C20.3212 11.6066 20.9606 10.2679 20.9606 8.8155H14.9606ZM14.692 9.18881C14.4785 9.4978 14.3231 9.83232 14.2234 10.1747L19.9844 11.8513C19.9097 12.108 19.7922 12.3624 19.6279 12.6002L14.692 9.18881ZM14.2154 10.203C13.7913 11.7152 13.0757 12.8449 12.4649 13.398L16.4923 17.8455C18.1508 16.3436 19.3499 14.1148 19.9925 11.823L14.2154 10.203ZM12.4612 13.4014C12.0076 13.8135 11.6971 14.3221 11.5239 14.8505L17.2258 16.7184C17.0945 17.1193 16.8556 17.5154 16.496 17.8421L12.4612 13.4014ZM11.5239 14.8505C11.3509 15.3786 11.3108 15.9373 11.4007 16.4769L17.3192 15.4911C17.3868 15.8971 17.357 16.3178 17.2258 16.7184L11.5239 14.8505ZM11.4025 16.4877C11.7056 18.2675 12.7669 20.7309 15.7466 22.1882L18.3827 16.7983C17.9109 16.5676 17.6885 16.3193 17.5677 16.1376C17.4338 15.9361 17.3563 15.709 17.3174 15.4803L11.4025 16.4877ZM15.7502 22.19C16.3383 22.4766 17.0753 22.6388 17.3725 22.7109L18.7874 16.8801C18.6754 16.8529 18.5834 16.8305 18.5002 16.8095C18.4173 16.7886 18.3568 16.7725 18.3111 16.7596C18.2646 16.7463 18.2486 16.7406 18.2531 16.7422C18.2557 16.7431 18.3038 16.7599 18.379 16.7965L15.7502 22.19ZM17.3703 22.7104C18.2414 22.9224 18.927 23.1082 19.4758 23.4294C19.9197 23.6892 20.1457 23.9586 20.2542 24.4143L26.091 23.0247C24.9335 18.1627 20.1243 17.2055 18.7895 16.8806L17.3703 22.7104ZM20.2549 24.4175C20.3485 24.8086 20.5135 25.1924 20.7537 25.5438L25.7069 22.1576C25.8937 22.4309 26.0195 22.7256 26.0903 23.0215L20.2549 24.4175ZM20.7537 25.5438C20.9942 25.8956 21.3101 26.2142 21.6971 26.4649L24.9593 21.4293C25.2704 21.6308 25.5197 21.8839 25.7069 22.1576L20.7537 25.5438ZM21.6971 26.4649C22.0853 26.7164 22.533 26.8913 23.0156 26.9622L23.8873 21.0258C24.283 21.0839 24.647 21.2269 24.9593 21.4293L21.6971 26.4649ZM23.0156 26.9622C23.4989 27.0331 23.9886 26.9954 24.4507 26.8555L22.7119 21.113C23.0893 20.9987 23.4908 20.9676 23.8873 21.0258L23.0156 26.9622ZM24.4507 26.8555C24.9114 26.716 25.3206 26.4824 25.6609 26.188L21.735 21.6507C22.0058 21.4164 22.3357 21.2269 22.7119 21.113L24.4507 26.8555ZM25.6609 26.188C26.0002 25.8944 26.2645 25.5464 26.4541 25.1762L21.1131 22.4423C21.2589 22.1574 21.465 21.8843 21.735 21.6507L25.6609 26.188ZM26.4541 25.1762C26.6435 24.8061 26.7594 24.4121 26.8053 24.0163L20.8453 23.3248C20.8798 23.0267 20.9674 22.7269 21.1131 22.4423L26.4541 25.1762ZM26.8053 24.0163C26.8512 23.6205 26.8278 23.2175 26.7343 22.8265L20.899 24.2225C20.8281 23.9266 20.8107 23.6229 20.8453 23.3248L26.8053 24.0163ZM26.735 22.8297C25.4782 17.5507 20.3582 16.4948 18.9312 16.1472L17.5114 21.9768C18.3855 22.1897 19.1647 22.3977 19.8145 22.7868C20.3652 23.1166 20.7314 23.5189 20.8982 24.2193L26.735 22.8297ZM18.9331 16.1477C18.8327 16.1231 18.7486 16.1026 18.6708 16.0831C18.5932 16.0636 18.5354 16.0485 18.4916 16.0364C18.4454 16.0236 18.4341 16.0194 18.4456 16.0233C18.4526 16.0257 18.4739 16.033 18.5055 16.0456C18.5358 16.0576 18.5899 16.08 18.6591 16.1142L16.0021 21.4938C16.3632 21.6721 16.733 21.7752 16.8908 21.8189C17.0981 21.8763 17.3299 21.9325 17.5095 21.9763L18.9331 16.1477ZM18.6479 16.1087C18.1301 15.8556 18.0356 15.6321 17.9857 15.4067L12.1275 16.7038C12.6177 18.9174 14.0511 20.5404 16.0134 21.4993L18.6479 16.1087ZM17.141 18.2129C18.7543 16.6544 19.946 14.4352 20.6062 12.1278L14.8377 10.4772C14.3966 12.0188 13.6616 13.2316 12.9722 13.8976L17.141 18.2129ZM20.1983 12.9959C20.9977 11.8269 21.6279 10.362 21.6279 8.81475H15.6279C15.6279 8.77286 15.6346 8.83088 15.5755 8.99301C15.5183 9.14991 15.4147 9.36181 15.2456 9.60911L20.1983 12.9959ZM21.6279 8.81475C21.6279 7.70833 21.2949 6.55304 20.4591 5.59509L15.9382 9.53991C15.8217 9.40649 15.7357 9.25324 15.6836 9.10195C15.6335 8.95626 15.6279 8.85131 15.6279 8.81475H21.6279ZM21.1965 7.45433C21.0032 2.33451 17.6146 -2.90958 12.1136 -2.99811L12.017 3.00111C13.1333 3.01908 15.0767 4.39449 15.2007 7.68067L21.1965 7.45433ZM12.1106 -2.99816L12.0112 -2.99966L11.9206 2.99966L12.02 3.00116L12.1106 -2.99816ZM11.9479 -2.99995C6.52176 -2.96738 3.09636 2.16147 2.81075 7.20281L8.80114 7.54219C8.98352 4.32303 10.9128 3.00638 11.984 2.99995L11.9479 -2.99995ZM3.89449 5.06029C2.69424 6.0525 2.17661 7.43561 2.17661 8.8155H8.17661C8.17661 8.85507 8.16894 8.99924 8.0841 9.19355C7.99515 9.39725 7.85988 9.56693 7.7174 9.68472L3.89449 5.06029ZM2.17661 8.8155C2.17661 10.6163 3.0267 12.3222 4.06286 13.6143L8.74369 9.86068C8.50723 9.56581 8.35234 9.29488 8.26321 9.08263C8.17008 8.86085 8.17661 8.7716 8.17661 8.8155H2.17661ZM3.54891 12.6609C4.19872 14.6696 5.24237 16.5639 6.62145 17.9844L10.9264 13.8051C10.3148 13.1751 9.68651 12.1399 9.25765 10.8141L3.54891 12.6609ZM5.8437 15.2516C5.79353 15.4801 5.6985 15.7036 5.18167 15.9559L7.81422 21.3476C9.78272 20.3864 11.217 18.7574 11.7042 16.5379L5.8437 15.2516ZM5.17758 15.9579C5.23446 15.9301 5.27815 15.9116 5.30198 15.902C5.32689 15.8919 5.34273 15.8862 5.34648 15.8849C5.35181 15.883 5.33672 15.8884 5.29157 15.9019C5.24833 15.9148 5.19236 15.9308 5.1191 15.9509C5.04588 15.971 4.96586 15.9924 4.87249 16.0173L6.42073 21.8142C6.62526 21.7595 7.32302 21.5883 7.81831 21.3456L5.17758 15.9579ZM4.8716 16.0176C3.4209 16.4055 -1.65535 17.5763 -2.90706 22.8308L2.92962 24.2212C3.10233 23.4962 3.49005 23.0582 4.07174 22.6971C4.7435 22.2802 5.54383 22.0486 6.42162 21.8139L4.8716 16.0176ZM-2.90768 22.8334C-3.09197 23.6101 -3.00173 24.446 -2.6232 25.1823L2.71279 22.4387C3.00281 23.0028 3.06894 23.634 2.93024 24.2186L-2.90768 22.8334ZM-2.6232 25.1823C-2.24166 25.9243 -1.55316 26.5764 -0.616439 26.858L1.11099 21.112C1.87693 21.3423 2.41976 21.8688 2.71279 22.4387L-2.6232 25.1823Z" fill="inherit" fill-opacity="0.5" mask="url(#path-1-inside-1_91_6559)"/>
</g>
<defs>
<clipPath id="clip0_91_6559">
<rect width="23.8281" height="23.9972" fill="white"/>
</clipPath>
</defs>
</svg>
