<svg width="25" height="23" viewBox="0 0 25 23" fill="none" xmlns="http://www.w3.org/2000/svg">
<path d="M23.5007 11.5C23.4997 10.5066 23.2174 9.53371 22.6865 8.69403C22.1556 7.85436 21.3978 7.18219 20.5007 6.75531V6.625C20.4998 5.65864 20.1879 4.71823 19.6111 3.94292C19.0343 3.1676 18.2232 2.59857 17.2978 2.32003C16.3725 2.04148 15.382 2.06821 14.4731 2.39626C13.5641 2.72431 12.7849 3.33626 12.2507 4.14156C11.7165 3.33626 10.9373 2.72431 10.0283 2.39626C9.11937 2.06821 8.12894 2.04148 7.20359 2.32003C6.27825 2.59857 5.46716 3.1676 4.89033 3.94292C4.31349 4.71823 4.00157 5.65864 4.0007 6.625V6.75531C3.10289 7.18102 2.34432 7.85276 1.81315 8.69249C1.28197 9.53222 1 10.5054 1 11.4991C1 12.4927 1.28197 13.4659 1.81315 14.3056C2.34432 15.1454 3.10289 15.8171 4.0007 16.2428V16.375C4.00157 17.3414 4.31349 18.2818 4.89033 19.0571C5.46716 19.8324 6.27825 20.4014 7.20359 20.68C8.12894 20.9585 9.11937 20.9318 10.0283 20.6037C10.9373 20.2757 11.7165 19.6637 12.2507 18.8584C12.7849 19.6637 13.5641 20.2757 14.4731 20.6037C15.382 20.9318 16.3725 20.9585 17.2978 20.68C18.2232 20.4014 19.0343 19.8324 19.6111 19.0571C20.1879 18.2818 20.4998 17.3414 20.5007 16.375V16.2428C21.3976 15.8163 22.1554 15.1444 22.6863 14.3051C23.2172 13.4657 23.4996 12.4932 23.5007 11.5ZM8.5007 19.375C7.76097 19.3749 7.04735 19.1015 6.49691 18.6073C5.94648 18.1131 5.59804 17.433 5.51852 16.6975C5.76105 16.7321 6.00571 16.7496 6.2507 16.75H7.0007C7.19962 16.75 7.39038 16.671 7.53103 16.5303C7.67169 16.3897 7.7507 16.1989 7.7507 16C7.7507 15.8011 7.67169 15.6103 7.53103 15.4697C7.39038 15.329 7.19962 15.25 7.0007 15.25H6.2507C5.36529 15.251 4.50807 14.9387 3.83081 14.3684C3.15355 13.7981 2.69993 13.0065 2.55028 12.1338C2.40062 11.2612 2.56458 10.3637 3.01312 9.60029C3.46166 8.8369 4.16585 8.25684 5.00102 7.96281C5.14715 7.91108 5.27365 7.81533 5.36314 7.68874C5.45262 7.56216 5.50068 7.41096 5.5007 7.25594V6.625C5.5007 5.82935 5.81677 5.06629 6.37938 4.50368C6.94199 3.94107 7.70505 3.625 8.5007 3.625C9.29635 3.625 10.0594 3.94107 10.622 4.50368C11.1846 5.06629 11.5007 5.82935 11.5007 6.625V13.0244C10.6771 12.2836 9.60839 11.8742 8.5007 11.875C8.30179 11.875 8.11103 11.954 7.97037 12.0947C7.82972 12.2353 7.7507 12.4261 7.7507 12.625C7.7507 12.8239 7.82972 13.0147 7.97037 13.1553C8.11103 13.296 8.30179 13.375 8.5007 13.375C9.29635 13.375 10.0594 13.6911 10.622 14.2537C11.1846 14.8163 11.5007 15.5794 11.5007 16.375C11.5007 17.1706 11.1846 17.9337 10.622 18.4963C10.0594 19.0589 9.29635 19.375 8.5007 19.375ZM18.2507 15.25H17.5007C17.3018 15.25 17.111 15.329 16.9704 15.4697C16.8297 15.6103 16.7507 15.8011 16.7507 16C16.7507 16.1989 16.8297 16.3897 16.9704 16.5303C17.111 16.671 17.3018 16.75 17.5007 16.75H18.2507C18.4957 16.7496 18.7404 16.7321 18.9829 16.6975C18.9206 17.2738 18.6927 17.8196 18.3267 18.2691C17.9608 18.7186 17.4725 19.0524 16.9208 19.2303C16.3692 19.4081 15.7778 19.4224 15.2183 19.2713C14.6587 19.1202 14.1549 18.8102 13.7677 18.3789C13.3805 17.9476 13.1266 17.4133 13.0366 16.8407C12.9467 16.2681 13.0245 15.6817 13.2607 15.1525C13.4969 14.6232 13.8814 14.1736 14.3676 13.8582C14.8539 13.5427 15.4211 13.3749 16.0007 13.375C16.1996 13.375 16.3904 13.296 16.531 13.1553C16.6717 13.0147 16.7507 12.8239 16.7507 12.625C16.7507 12.4261 16.6717 12.2353 16.531 12.0947C16.3904 11.954 16.1996 11.875 16.0007 11.875C14.893 11.8742 13.8243 12.2836 13.0007 13.0244V6.625C13.0007 5.82935 13.3168 5.06629 13.8794 4.50368C14.442 3.94107 15.2051 3.625 16.0007 3.625C16.7964 3.625 17.5594 3.94107 18.122 4.50368C18.6846 5.06629 19.0007 5.82935 19.0007 6.625V7.25594C19.0007 7.41096 19.0488 7.56216 19.1383 7.68874C19.2278 7.81533 19.3543 7.91108 19.5004 7.96281C20.3356 8.25684 21.0397 8.8369 21.4883 9.60029C21.9368 10.3637 22.1008 11.2612 21.9511 12.1338C21.8015 13.0065 21.3479 13.7981 20.6706 14.3684C19.9933 14.9387 19.1361 15.251 18.2507 15.25ZM19.7507 10.375C19.7507 10.5739 19.6717 10.7647 19.531 10.9053C19.3904 11.046 19.1996 11.125 19.0007 11.125H18.6257C17.7306 11.125 16.8722 10.7694 16.2392 10.1365C15.6063 9.50355 15.2507 8.64511 15.2507 7.75V7.375C15.2507 7.17609 15.3297 6.98532 15.4704 6.84467C15.611 6.70402 15.8018 6.625 16.0007 6.625C16.1996 6.625 16.3904 6.70402 16.531 6.84467C16.6717 6.98532 16.7507 7.17609 16.7507 7.375V7.75C16.7507 8.24728 16.9482 8.72419 17.2999 9.07583C17.6515 9.42746 18.1284 9.625 18.6257 9.625H19.0007C19.1996 9.625 19.3904 9.70402 19.531 9.84467C19.6717 9.98532 19.7507 10.1761 19.7507 10.375ZM5.8757 11.125H5.5007C5.30179 11.125 5.11103 11.046 4.97037 10.9053C4.82972 10.7647 4.7507 10.5739 4.7507 10.375C4.7507 10.1761 4.82972 9.98532 4.97037 9.84467C5.11103 9.70402 5.30179 9.625 5.5007 9.625H5.8757C6.37298 9.625 6.8499 9.42746 7.20153 9.07583C7.55316 8.72419 7.7507 8.24728 7.7507 7.75V7.375C7.7507 7.17609 7.82972 6.98532 7.97037 6.84467C8.11103 6.70402 8.30179 6.625 8.5007 6.625C8.69962 6.625 8.89038 6.70402 9.03103 6.84467C9.17169 6.98532 9.2507 7.17609 9.2507 7.375V7.75C9.2507 8.64511 8.89512 9.50355 8.26219 10.1365C7.62925 10.7694 6.77081 11.125 5.8757 11.125Z" fill="inherit" fill-opacity="0.5"/>
</svg>
