<svg width="40" height="40" viewBox="0 0 40 40" fill="none" xmlns="http://www.w3.org/2000/svg">
<path d="M15.625 15.625C15.625 15.1277 15.8225 14.6508 16.1742 14.2992C16.5258 13.9475 17.0027 13.75 17.5 13.75H22.5C22.9973 13.75 23.4742 13.9475 23.8258 14.2992C24.1775 14.6508 24.375 15.1277 24.375 15.625C24.375 16.1223 24.1775 16.5992 23.8258 16.9508C23.4742 17.3025 22.9973 17.5 22.5 17.5H17.5C17.0027 17.5 16.5258 17.3025 16.1742 16.9508C15.8225 16.5992 15.625 16.1223 15.625 15.625ZM36.875 10.625V30.625C36.875 31.4538 36.5458 32.2487 35.9597 32.8347C35.3737 33.4208 34.5788 33.75 33.75 33.75H6.25C5.4212 33.75 4.62634 33.4208 4.04029 32.8347C3.45424 32.2487 3.125 31.4538 3.125 30.625V10.625C3.125 9.7962 3.45424 9.00134 4.04029 8.41529C4.62634 7.82924 5.4212 7.5 6.25 7.5H11.875V6.25C11.875 5.08968 12.3359 3.97688 13.1564 3.15641C13.9769 2.33594 15.0897 1.875 16.25 1.875H23.75C24.9103 1.875 26.0231 2.33594 26.8436 3.15641C27.6641 3.97688 28.125 5.08968 28.125 6.25V7.5H33.75C34.5788 7.5 35.3737 7.82924 35.9597 8.41529C36.5458 9.00134 36.875 9.7962 36.875 10.625ZM15.625 7.5H24.375V6.25C24.375 6.08424 24.3092 5.92527 24.1919 5.80806C24.0747 5.69085 23.9158 5.625 23.75 5.625H16.25C16.0842 5.625 15.9253 5.69085 15.8081 5.80806C15.6908 5.92527 15.625 6.08424 15.625 6.25V7.5ZM6.875 11.25V16.7547C10.9212 18.8872 15.4262 20.0012 20 20C24.5739 20.0011 29.0791 18.8866 33.125 16.7531V11.25H6.875ZM33.125 30V20.9281C28.9995 22.7886 24.5256 23.7505 20 23.75C15.4744 23.7508 11.0004 22.7889 6.875 20.9281V30H33.125Z" fill="#0A6251"/>
</svg>
