<svg width="120" height="120" viewBox="0 0 120 120" fill="none" xmlns="http://www.w3.org/2000/svg">
<circle cx="60" cy="60" r="60" fill="#1ACAA6"/>
<path d="M80.625 30H35.625C32.5312 30 30 32.5312 30 35.625V84.375C30 87.4688 32.5312 90 35.625 90H80.625C83.7188 90 86.25 87.4688 86.25 84.375V35.625C86.25 32.5312 83.7188 30 80.625 30ZM78.75 82.5H37.5V37.5H78.75V82.5ZM45 63.75H71.25V67.5H45V63.75ZM45 71.25H71.25V75H45V71.25ZM48.75 46.875C48.7502 46.1361 48.896 45.4044 49.179 44.7218C49.462 44.0392 49.8767 43.4191 50.3994 42.8967C50.9221 42.3744 51.5425 41.9602 52.2253 41.6776C52.9081 41.3951 53.6398 41.2498 54.3787 41.25C55.1177 41.2502 55.8493 41.396 56.5319 41.679C57.2145 41.962 57.8347 42.3767 58.357 42.8994C58.8793 43.4221 59.2936 44.0425 59.5761 44.7253C59.8587 45.4081 60.004 46.1398 60.0038 46.8787C60.0033 48.3711 59.4099 49.8021 58.3544 50.857C57.2988 51.9119 55.8673 52.5042 54.375 52.5037C52.8827 52.5033 51.4516 51.9099 50.3967 50.8544C49.3419 49.7988 48.7495 48.3673 48.75 46.875ZM58.125 52.5H50.625C47.5312 52.5 45 54.1875 45 56.25V60H63.75V56.25C63.75 54.1875 61.2188 52.5 58.125 52.5Z" fill="white"/>
</svg>
