<svg width="33" height="33" viewBox="0 0 33 33" fill="none" xmlns="http://www.w3.org/2000/svg">
<path d="M16.3333 12.3333C15.2725 12.3333 14.2551 12.7548 13.5049 13.5049C12.7548 14.2551 12.3333 15.2725 12.3333 16.3333C12.3333 17.3942 12.7548 18.4116 13.5049 19.1618C14.2551 19.9119 15.2725 20.3333 16.3333 20.3333C17.3942 20.3333 18.4116 19.9119 19.1618 19.1618C19.9119 18.4116 20.3333 17.3942 20.3333 16.3333C20.3333 15.2725 19.9119 14.2551 19.1618 13.5049C18.4116 12.7548 17.3942 12.3333 16.3333 12.3333ZM16.3333 9.66667C18.1014 9.66667 19.7971 10.369 21.0474 11.6193C22.2976 12.8695 23 14.5652 23 16.3333C23 18.1014 22.2976 19.7971 21.0474 21.0474C19.7971 22.2976 18.1014 23 16.3333 23C14.5652 23 12.8695 22.2976 11.6193 21.0474C10.369 19.7971 9.66667 18.1014 9.66667 16.3333C9.66667 14.5652 10.369 12.8695 11.6193 11.6193C12.8695 10.369 14.5652 9.66667 16.3333 9.66667ZM25 9.33333C25 9.77536 24.8244 10.1993 24.5118 10.5118C24.1993 10.8244 23.7754 11 23.3333 11C22.8913 11 22.4674 10.8244 22.1548 10.5118C21.8423 10.1993 21.6667 9.77536 21.6667 9.33333C21.6667 8.89131 21.8423 8.46738 22.1548 8.15482C22.4674 7.84226 22.8913 7.66667 23.3333 7.66667C23.7754 7.66667 24.1993 7.84226 24.5118 8.15482C24.8244 8.46738 25 8.89131 25 9.33333ZM16.3333 5.66667C13.0347 5.66667 12.496 5.676 10.9613 5.744C9.916 5.79333 9.21467 5.93333 8.564 6.18667C8.01949 6.38658 7.52722 6.70702 7.124 7.124C6.70668 7.5272 6.3858 8.01944 6.18533 8.564C5.932 9.21733 5.792 9.91733 5.744 10.9613C5.67467 12.4333 5.66533 12.948 5.66533 16.3333C5.66533 19.6333 5.67467 20.1707 5.74267 21.7053C5.792 22.7493 5.932 23.452 6.184 24.1013C6.41067 24.6813 6.67733 25.0987 7.12 25.5413C7.56933 25.9893 7.98667 26.2573 8.56 26.4787C9.21867 26.7333 9.92 26.8747 10.96 26.9227C12.432 26.992 12.9467 27 16.332 27C19.632 27 20.1693 26.9907 21.704 26.9227C22.7467 26.8733 23.448 26.7333 24.1 26.4813C24.644 26.2804 25.1361 25.9601 25.54 25.544C25.9893 25.096 26.2573 24.6787 26.4787 24.104C26.732 23.448 26.8733 22.7467 26.9213 21.704C26.9907 20.2333 26.9987 19.7173 26.9987 16.3333C26.9987 13.0347 26.9893 12.496 26.9213 10.9613C26.872 9.91867 26.7307 9.21467 26.4787 8.564C26.2777 8.02002 25.9574 7.52798 25.5413 7.124C25.1383 6.70646 24.646 6.38556 24.1013 6.18533C23.448 5.932 22.7467 5.792 21.704 5.744C20.2333 5.67467 19.72 5.66667 16.3333 5.66667ZM16.3333 3C19.956 3 20.408 3.01333 21.8307 3.08C23.2493 3.14667 24.2173 3.36933 25.0667 3.7C25.9467 4.03867 26.688 4.49733 27.4293 5.23733C28.1073 5.90386 28.6319 6.71012 28.9667 7.6C29.296 8.44933 29.52 9.41733 29.5867 10.8373C29.6493 12.2587 29.6667 12.7107 29.6667 16.3333C29.6667 19.956 29.6533 20.408 29.5867 21.8293C29.52 23.2493 29.296 24.216 28.9667 25.0667C28.6329 25.957 28.1081 26.7635 27.4293 27.4293C26.7626 28.1071 25.9564 28.6317 25.0667 28.9667C24.2173 29.296 23.2493 29.52 21.8307 29.5867C20.408 29.6493 19.956 29.6667 16.3333 29.6667C12.7107 29.6667 12.2587 29.6533 10.836 29.5867C9.41733 29.52 8.45067 29.296 7.6 28.9667C6.70977 28.6326 5.90337 28.1079 5.23733 27.4293C4.55924 26.7629 4.03461 25.9566 3.7 25.0667C3.36933 24.2173 3.14667 23.2493 3.08 21.8293C3.016 20.408 3 19.956 3 16.3333C3 12.7107 3.01333 12.2587 3.08 10.8373C3.14667 9.416 3.36933 8.45067 3.7 7.6C4.03365 6.70957 4.5584 5.90309 5.23733 5.23733C5.90356 4.55897 6.70991 4.03431 7.6 3.7C8.44933 3.36933 9.416 3.14667 10.836 3.08C12.2587 3.01733 12.7107 3 16.3333 3Z" fill="inherit"/>
</svg>
