<svg width="32" height="32" viewBox="0 0 32 32" fill="none" xmlns="http://www.w3.org/2000/svg">
<path d="M8.33333 6.668C8.33298 7.37524 8.05169 8.05338 7.55134 8.55323C7.051 9.05308 6.37258 9.33369 5.66533 9.33333C4.95809 9.33298 4.27995 9.05169 3.78011 8.55134C3.28026 8.051 2.99965 7.37258 3 6.66533C3.00035 5.95809 3.28164 5.27995 3.78199 4.78011C4.28234 4.28026 4.96076 3.99965 5.668 4C6.37524 4.00035 7.05338 4.28164 7.55323 4.78199C8.05308 5.28234 8.33369 5.96076 8.33333 6.668ZM8.41333 11.308H3.08V28.0013H8.41333V11.308ZM16.84 11.308H11.5333V28.0013H16.7867V19.2413C16.7867 14.3613 23.1467 13.908 23.1467 19.2413V28.0013H28.4133V17.428C28.4133 9.20133 19 9.508 16.7867 13.548L16.84 11.308Z" fill="white"/>
</svg>
