<svg width="32" height="33" viewBox="0 0 32 33" fill="none" xmlns="http://www.w3.org/2000/svg">
<path d="M29.1787 7.62327C28.1612 8.0734 27.0822 8.3691 25.9773 8.5006C27.1414 7.80345 28.0124 6.70692 28.428 5.41527C27.3347 6.06593 26.136 6.52193 24.888 6.7686C24.0488 5.87071 22.9365 5.27522 21.7239 5.07471C20.5114 4.87421 19.2666 5.07992 18.183 5.65987C17.0995 6.23982 16.2379 7.16151 15.7322 8.28166C15.2265 9.4018 15.105 10.6576 15.3867 11.8539C13.1692 11.743 11 11.1669 9.01965 10.1631C7.03935 9.15927 5.29232 7.75016 3.892 6.02727C3.39639 6.87853 3.13594 7.84624 3.13733 8.83127C3.13733 10.7646 4.12267 12.4726 5.61733 13.4726C4.73202 13.4447 3.8662 13.2056 3.092 12.7753V12.8433C3.09196 14.1311 3.53738 15.3793 4.35271 16.3762C5.16804 17.373 6.30308 18.0572 7.56533 18.3126C6.74352 18.5355 5.88172 18.5684 5.04533 18.4086C5.40123 19.5171 6.09495 20.4866 7.02933 21.1811C7.96371 21.8757 9.09194 22.2606 10.256 22.2819C9.09914 23.1905 7.77452 23.8622 6.35788 24.2584C4.94124 24.6547 3.46038 24.7678 2 24.5913C4.54896 26.2304 7.51614 27.1007 10.5467 27.0979C20.8053 27.0979 26.4133 18.6006 26.4133 11.2313C26.4133 10.9913 26.408 10.7486 26.3973 10.5099C27.4885 9.72108 28.4304 8.74268 29.1787 7.62327Z" fill="inherit"/>
</svg>
