<svg width="25" height="25" viewBox="0 0 25 25" fill="none" xmlns="http://www.w3.org/2000/svg">
<path d="M10.25 2V5L8.75 5.75L6.5 3.5L3.5 6.5L5.75 8.75L5 10.25H2V14.75H5L5.75 16.25L3.5 18.5L6.5 21.5L8.75 19.25L10.25 20V23H14.75V20L16.25 19.25L18.5 21.5L21.5 18.5L19.25 16.25L20 14.75H23V10.25H20L19.25 8.75L21.5 6.5L18.5 3.5L16.25 5.75L14.75 5V2H10.25Z" stroke="inherit" stroke-opacity="0.5" stroke-width="2" stroke-linecap="round" stroke-linejoin="round"/>
<path d="M12.5 15.5C14.1569 15.5 15.5 14.1569 15.5 12.5C15.5 10.8431 14.1569 9.5 12.5 9.5C10.8431 9.5 9.5 10.8431 9.5 12.5C9.5 14.1569 10.8431 15.5 12.5 15.5Z" stroke="inherit" stroke-opacity="0.5" stroke-width="2" stroke-linecap="round" stroke-linejoin="round"/>
</svg>
