<svg width="25" height="23" viewBox="0 0 25 23" fill="none" xmlns="http://www.w3.org/2000/svg">
<path d="M23.5007 11.4999C23.4997 10.5064 23.2174 9.53358 22.6865 8.69391C22.1556 7.85423 21.3978 7.18206 20.5007 6.75519V6.62488C20.4998 5.65852 20.1879 4.71811 19.6111 3.9428C19.0343 3.16748 18.2232 2.59845 17.2978 2.3199C16.3725 2.04135 15.382 2.06808 14.4731 2.39614C13.5641 2.72419 12.7849 3.33614 12.2507 4.14144C11.7165 3.33614 10.9373 2.72419 10.0283 2.39614C9.11937 2.06808 8.12894 2.04135 7.20359 2.3199C6.27825 2.59845 5.46716 3.16748 4.89033 3.9428C4.31349 4.71811 4.00157 5.65852 4.0007 6.62488V6.75519C3.10289 7.1809 2.34432 7.85264 1.81315 8.69237C1.28197 9.53209 1 10.5053 1 11.4989C1 12.4926 1.28197 13.4658 1.81315 14.3055C2.34432 15.1452 3.10289 15.817 4.0007 16.2427V16.3749C4.00157 17.3412 4.31349 18.2816 4.89033 19.057C5.46716 19.8323 6.27825 20.4013 7.20359 20.6799C8.12894 20.9584 9.11937 20.9317 10.0283 20.6036C10.9373 20.2756 11.7165 19.6636 12.2507 18.8583C12.7849 19.6636 13.5641 20.2756 14.4731 20.6036C15.382 20.9317 16.3725 20.9584 17.2978 20.6799C18.2232 20.4013 19.0343 19.8323 19.6111 19.057C20.1879 18.2816 20.4998 17.3412 20.5007 16.3749V16.2427C21.3976 15.8161 22.1554 15.1443 22.6863 14.3049C23.2172 13.4656 23.4996 12.493 23.5007 11.4999ZM8.5007 19.3749C7.76097 19.3748 7.04735 19.1014 6.49691 18.6072C5.94648 18.113 5.59804 17.4328 5.51852 16.6974C5.76105 16.732 6.00571 16.7495 6.2507 16.7499H7.0007C7.19962 16.7499 7.39038 16.6709 7.53103 16.5302C7.67169 16.3896 7.7507 16.1988 7.7507 15.9999C7.7507 15.801 7.67169 15.6102 7.53103 15.4695C7.39038 15.3289 7.19962 15.2499 7.0007 15.2499H6.2507C5.36529 15.2509 4.50807 14.9386 3.83081 14.3683C3.15355 13.798 2.69993 13.0064 2.55028 12.1337C2.40062 11.261 2.56458 10.3636 3.01312 9.60017C3.46166 8.83678 4.16585 8.25672 5.00102 7.96269C5.14715 7.91095 5.27365 7.81521 5.36314 7.68862C5.45262 7.56204 5.50068 7.41083 5.5007 7.25582V6.62488C5.5007 5.82923 5.81677 5.06617 6.37938 4.50356C6.94199 3.94095 7.70505 3.62488 8.5007 3.62488C9.29635 3.62488 10.0594 3.94095 10.622 4.50356C11.1846 5.06617 11.5007 5.82923 11.5007 6.62488V13.0243C10.6771 12.2835 9.60839 11.8741 8.5007 11.8749C8.30179 11.8749 8.11103 11.9539 7.97037 12.0945C7.82972 12.2352 7.7507 12.426 7.7507 12.6249C7.7507 12.8238 7.82972 13.0146 7.97037 13.1552C8.11103 13.2959 8.30179 13.3749 8.5007 13.3749C9.29635 13.3749 10.0594 13.6909 10.622 14.2536C11.1846 14.8162 11.5007 15.5792 11.5007 16.3749C11.5007 17.1705 11.1846 17.9336 10.622 18.4962C10.0594 19.0588 9.29635 19.3749 8.5007 19.3749ZM18.2507 15.2499H17.5007C17.3018 15.2499 17.111 15.3289 16.9704 15.4695C16.8297 15.6102 16.7507 15.801 16.7507 15.9999C16.7507 16.1988 16.8297 16.3896 16.9704 16.5302C17.111 16.6709 17.3018 16.7499 17.5007 16.7499H18.2507C18.4957 16.7495 18.7404 16.732 18.9829 16.6974C18.9206 17.2736 18.6927 17.8195 18.3267 18.269C17.9608 18.7185 17.4725 19.0523 16.9208 19.2302C16.3692 19.408 15.7778 19.4222 15.2183 19.2712C14.6587 19.1201 14.1549 18.8101 13.7677 18.3788C13.3805 17.9474 13.1266 17.4132 13.0366 16.8406C12.9467 16.268 13.0245 15.6816 13.2607 15.1523C13.4969 14.623 13.8814 14.1735 14.3676 13.8581C14.8539 13.5426 15.4211 13.3748 16.0007 13.3749C16.1996 13.3749 16.3904 13.2959 16.531 13.1552C16.6717 13.0146 16.7507 12.8238 16.7507 12.6249C16.7507 12.426 16.6717 12.2352 16.531 12.0945C16.3904 11.9539 16.1996 11.8749 16.0007 11.8749C14.893 11.8741 13.8243 12.2835 13.0007 13.0243V6.62488C13.0007 5.82923 13.3168 5.06617 13.8794 4.50356C14.442 3.94095 15.2051 3.62488 16.0007 3.62488C16.7964 3.62488 17.5594 3.94095 18.122 4.50356C18.6846 5.06617 19.0007 5.82923 19.0007 6.62488V7.25582C19.0007 7.41083 19.0488 7.56204 19.1383 7.68862C19.2278 7.81521 19.3543 7.91095 19.5004 7.96269C20.3356 8.25672 21.0397 8.83678 21.4883 9.60017C21.9368 10.3636 22.1008 11.261 21.9511 12.1337C21.8015 13.0064 21.3479 13.798 20.6706 14.3683C19.9933 14.9386 19.1361 15.2509 18.2507 15.2499ZM19.7507 10.3749C19.7507 10.5738 19.6717 10.7646 19.531 10.9052C19.3904 11.0459 19.1996 11.1249 19.0007 11.1249H18.6257C17.7306 11.1249 16.8722 10.7693 16.2392 10.1364C15.6063 9.50343 15.2507 8.64498 15.2507 7.74988V7.37488C15.2507 7.17597 15.3297 6.9852 15.4704 6.84455C15.611 6.7039 15.8018 6.62488 16.0007 6.62488C16.1996 6.62488 16.3904 6.7039 16.531 6.84455C16.6717 6.9852 16.7507 7.17597 16.7507 7.37488V7.74988C16.7507 8.24716 16.9482 8.72407 17.2999 9.0757C17.6515 9.42733 18.1284 9.62488 18.6257 9.62488H19.0007C19.1996 9.62488 19.3904 9.7039 19.531 9.84455C19.6717 9.9852 19.7507 10.176 19.7507 10.3749ZM5.8757 11.1249H5.5007C5.30179 11.1249 5.11103 11.0459 4.97037 10.9052C4.82972 10.7646 4.7507 10.5738 4.7507 10.3749C4.7507 10.176 4.82972 9.9852 4.97037 9.84455C5.11103 9.7039 5.30179 9.62488 5.5007 9.62488H5.8757C6.37298 9.62488 6.8499 9.42733 7.20153 9.0757C7.55316 8.72407 7.7507 8.24716 7.7507 7.74988V7.37488C7.7507 7.17597 7.82972 6.9852 7.97037 6.84455C8.11103 6.7039 8.30179 6.62488 8.5007 6.62488C8.69962 6.62488 8.89038 6.7039 9.03103 6.84455C9.17169 6.9852 9.2507 7.17597 9.2507 7.37488V7.74988C9.2507 8.64498 8.89512 9.50343 8.26219 10.1364C7.62925 10.7693 6.77081 11.1249 5.8757 11.1249Z" fill="inherit" fill-opacity="0.5"/>
</svg>
