<svg width="33" height="32" viewBox="0 0 33 32" fill="none" xmlns="http://www.w3.org/2000/svg">
<path d="M5.49854 8V24C5.49854 24.5304 5.70925 25.0391 6.08432 25.4142C6.45939 25.7893 6.9681 26 7.49854 26H27.4985C27.7638 26 28.0181 25.8946 28.2056 25.7071C28.3932 25.5196 28.4985 25.2652 28.4985 25V11C28.4985 10.7348 28.3932 10.4804 28.2056 10.2929C28.0181 10.1054 27.7638 10 27.4985 10H7.49854C6.9681 10 6.45939 9.78929 6.08432 9.41421C5.70925 9.03914 5.49854 8.53043 5.49854 8ZM5.49854 8C5.49854 7.46957 5.70925 6.96086 6.08432 6.58579C6.45939 6.21071 6.9681 6 7.49854 6H24.4985" stroke="#1ACAA6" stroke-width="2" stroke-linecap="round" stroke-linejoin="round"/>
<path d="M23.4985 18C23.4985 18.2761 23.2747 18.5 22.9985 18.5C22.7224 18.5 22.4985 18.2761 22.4985 18C22.4985 17.7239 22.7224 17.5 22.9985 17.5C23.2747 17.5 23.4985 17.7239 23.4985 18Z" fill="#0D3B4D" stroke="#1ACAA6" stroke-width="2"/>
</svg>
